<svg xmlns="http://www.w3.org/2000/svg" viewBox="0 0 368.85 299.61"><defs><style>.cls-1{fill:#070707;}.cls-2{fill:#0c0c0c;}</style></defs><g id="Layer_2" data-name="Layer 2"><g id="Layer_1-2" data-name="Layer 1"><path class="cls-1" d="M239.21,118.48c.26-2.72.1-4.31.59-5.68,1.48-4.1-.52-6-3.7-8.35-5.06-3.78-8.83-3.5-13.2.9-3,3-6.57,2.84-9.43-.8-2.44-3.12-5-6.14-7.28-9.39-2.61-3.78-1.95-7.19,1.87-9.88l1.22-.87c5.31-4,6.61-10.67,2.94-16.09-1.5-2.2-4.18-1.78-6.4-2.11-7.44-1.11-8.94-3.08-7.7-10.63.34-2.13.87-4.23,1.14-6.37.9-7.09,2.44-8.21,9.8-7.54,2.58.23,5.84,1.78,7.68,0,2.63-2.61,4.41-6.16,6.19-9.49.83-1.54-1-2.62-1.88-3.75-6.05-7.6-5.79-9.73,1.88-15.55,1.72-1.3,3.33-2.74,5.12-3.92,5-3.34,7.16-3,10.9,1.67a25.69,25.69,0,0,1,3.33,4.32c1.21,2.43,3,2.27,5,1.63.32-.1.6-.38.91-.4,6.7-.46,10.27-3.41,10-10.75-.15-3.91,2.95-5.7,6.9-5.34,3.3.3,6.63.55,9.9,1.1,7,1.2,8.37,3.18,7.58,10.14-.27,2.43-2.17,5.45-.42,7.18a34.39,34.39,0,0,0,9.56,6.12c2.18,1,3.86-1.3,5.51-2.49,7.06-5.06,8.79-4.81,14,2.32.3.4.61.79.9,1.19,7.47,10.07,7.53,10.31-2.22,18C307.52,45.52,307,47.36,308,50c.52,1.39,1.4,2.83,1.36,4.22-.13,4,2.26,4.94,5.56,5.38,9.46,1.27,11,3.63,8.79,12.72-2.91,11.75-2.92,12-15,11.34-4.62-.25-4.58,3.6-6.54,5.66-3,3.19-3.18,6.2.07,9.86,5.15,5.81,4.64,8.29-1.45,13-2.36,1.81-4.73,3.64-7.23,5.24-4.35,2.78-7,2.23-10.24-1.81-5.65-7.15-7.45-7.6-16-4.3a3.31,3.31,0,0,0-2.53,3.21,53.5,53.5,0,0,1-1,6.88c-.65,3.28-2.86,4.83-6.07,4.61-4.64-.32-9.28-.62-13.76-2.1C240.66,122.78,238.9,120.83,239.21,118.48Zm21.43-30.29c14.27,0,26-11.42,25.85-25.3a25.54,25.54,0,0,0-25.44-25.15c-13.68,0-25.51,11.74-25.51,25.27C235.54,76.35,247.31,88.15,260.64,88.19Z"/><path class="cls-1" d="M174.86,12.16c5.62.34,11.31-.12,16.88,1.09,1.46.32,4.23-.28,4,1.82-.27,2.58,1,6.09-2,7.7a31.84,31.84,0,0,0-10.86,9.28c-1.18,1.63-2.72,1.62-4.42,1.59-18.12-.4-35.17,3.41-51,12.63A84.35,84.35,0,0,0,94.2,82.1c-4.51,9-7.07,18.55-8.88,28.31-.63,3.37-2.18,4.28-5.18,4.71A95.22,95.22,0,0,0,48.59,125c-24.54,13-32.11,41.7-22.52,66,6.39,16.23,17.46,27.87,34.42,33.2,2.53.79,3.46,1.85,3.36,4.47-.19,5-.22,10,0,14.95.16,3.6-1.47,3.76-4.27,3-26.06-6.8-44.25-22.47-53.74-47.78-10-26.83-7.46-52.18,10.3-75.1,10.73-13.85,25.63-21.91,42.33-26.22,5.81-1.5,8.45-4.33,10.09-9.67,8.53-27.79,25.86-48.57,51.3-62.42A107.52,107.52,0,0,1,174.86,12.16Z"/><path class="cls-1" d="M129.3,218.56c14,0,13.86.07,18.71,13.28q11.66,31.68,23.83,63.18c1.49,3.86.52,4.64-3.19,4.53-5.81-.19-11.65-.25-17.46,0-3.17.15-4.4-1.23-5.21-4-2.78-9.5-2.84-9.47-12.5-9.41-4.82,0-9.66.18-14.47-.07-3.42-.17-5,1-5.91,4.41-2.87,10.32-.89,8.89-11.82,9-4.33,0-8.66-.1-13,.05-3,.1-3.31-1-2.3-3.55q7.71-19.59,15.18-39.29c4.22-11.13,8.48-22.26,12.36-33.51,1.25-3.63,3-5.09,6.78-4.69A89.58,89.58,0,0,0,129.3,218.56Zm-.68,50.29c9.26,0,9.35,0,6.88-8.26-1.56-5.19-3.38-10.3-5.15-15.41-.36-1-.71-2.25-2.35-1.93-1.46.29-1,1.44-1.22,2.31-1.49,5-3.08,10.05-4.5,15.11C120,268.84,120,268.85,128.62,268.85Z"/><path class="cls-1" d="M368.85,158.5c-.16,19.59-3.68,37.59-15,53.31C342,228.24,325.22,237.51,306.55,244c-2.42.83-3.33-.11-3.3-2.6.09-5.65.16-11.3,0-17-.11-3.1,2.25-3.32,4.11-4.13,11.7-5.11,22.23-11.61,29.52-22.57a57.43,57.43,0,0,0,9.4-27.45c1.19-14.34.34-28.49-5.65-42a68.51,68.51,0,0,0-11.15-16.93c-4.28-5-4.07-6.32,1.3-9.54,2.88-1.74,5.66-3.74,7.37-6.58,2.35-3.92,4.14-2.45,6.39-.06A86.53,86.53,0,0,1,366.11,136C367.88,143.63,368.27,151.38,368.85,158.5Z"/><path class="cls-1" d="M179.79,258.8c0-12,.08-23.9,0-35.85,0-3,.5-4.52,4-4.46,13.45.23,26.91.07,40.36.24,9.71.13,18.43,3.09,22.33,12.68,4.08,10,3.73,20.27-3.25,29.22-4.67,6-11.61,8-18.87,8.61a137.09,137.09,0,0,1-15.44.13c-3.31-.12-4.36,1.13-4.29,4.33.16,7.3-.07,14.61.11,21.91.08,3.07-1,4.06-4,3.95-5.47-.2-11-.25-16.44,0-3.44.17-4.61-.89-4.55-4.42C179.91,283,179.79,270.91,179.79,258.8Zm24.88-15c0,9.87,0,9.87,9.46,9.16,6.52-.48,10.41-3.9,10.33-9.05-.09-5.5-4.07-8.76-10.86-8.87C204.67,234.91,204.67,234.91,204.67,243.83Z"/><path class="cls-2" d="M259,259.2c0-11.95.13-23.9-.08-35.85-.06-3.55.62-5.13,4.58-4.9,5.63.34,11.3.25,16.94,0,3.13-.12,3.92,1,3.91,4q-.17,36.35,0,72.7c0,3.59-1.18,4.54-4.59,4.38-5.63-.25-11.29-.21-16.93,0-3.09.1-4-1-3.91-4C259,283.43,259,271.31,259,259.2Z"/><path class="cls-2" d="M123.72,179c6.85,4.56,8.76,12.14,12.62,18.43,1.48,2.4.43,3.34-2.12,3.16h-.5c-12.93.43-12.89.41-19.18-11.14-1.63-3-2.48-6.58-6-8.26-2.58-1.22-4.18-.91-4.19,2.35,0,4.65-.07,9.31,0,14,0,2.32-.84,3-3.22,3.15-11.93.59-11.93.67-11.93-11.44,0-11.14.16-22.28-.09-33.41C89,152,90.26,151,93.94,151.1c8.64.31,17.3,0,25.94.3,8.15.32,12.31,3.78,13.67,10.51,1.39,6.91-1.7,12.48-8.79,15.89C124.49,177.92,124.34,178.27,123.72,179Zm-12.63-18.13c-2,0-3,0-4,0-4.22.24-2.47,3.52-2.67,5.62s-.81,4.65,2.72,4.51a46,46,0,0,0,7.35-.57c2.41-.49,4.32-2,4.06-4.79-.25-2.62-2.18-4-4.56-4.6A11.45,11.45,0,0,0,111.09,160.86Z"/><path class="cls-2" d="M141.09,175.42c0-6.65.11-13.3,0-19.95-.08-3.05.58-4.45,4.1-4.38,10.81.23,21.63.31,32.44,0,4.61-.14,4,2.46,4.1,5.35.07,3.09.11,5.52-4.3,5.25-5.8-.36-11.64.06-17.45-.16-3.47-.12-3.56,1.79-3.67,4.38-.13,2.87.9,3.74,3.72,3.65,5.65-.19,11.32.14,17-.13,3.55-.16,3.4,2,3,4.1s2,5.86-2.88,5.86c-5.66,0-11.33.21-17-.08-4.36-.21-3.7,2.57-3.8,5.2s-.15,4.86,3.75,4.67c6.14-.3,12.32.15,18.46-.17,4.68-.24,4,2.71,4,5.51s1,6.09-4.09,6c-11.13-.26-22.29-.19-33.43,0-3.24.05-4-1.27-3.92-4.12C141.16,189.38,141.09,182.4,141.09,175.42Z"/><path class="cls-2" d="M209.64,201.22c-9.7,0-17.4-1.55-21.65-10.18-2.8-5.67-2.26-6.74,3.85-7.25,1.49-.12,3-.27,4.46-.45,2.42-.3,4.06-.24,5.11,2.89,1.56,4.67,6.21,6.43,10.51,5,2.25-.74,3.77-2,3.92-4.54s-1.18-4.07-3.48-4.79c-4.89-1.54-9.89-2.81-14.7-4.57-8.77-3.21-11.84-11.86-7.43-19.77,1.32-2.38,3.48-3.44,5.57-4.72,6.59-4,21.53-3.5,27.63,1a16.56,16.56,0,0,1,3.11,3.2c1.56,2,3.12,4.53,2.32,6.79-1,2.71-4.07,1.22-6.21,1.38-3.83.29-7.66,1.07-10-3.91-1.21-2.62-5-2.28-7.76-1.45a3.58,3.58,0,0,0-2.54,2.84c-.29,1.64.88,2.39,2,3.15,2.25,1.59,5,1.79,7.52,2.35,4.38,1,8.71,1.89,12.54,4.47a14.79,14.79,0,0,1,.59,24.08A22.94,22.94,0,0,1,209.64,201.22Z"/><path class="cls-2" d="M257,151.19c6.32,0,12.64.14,18.95-.07,3.07-.1,4,.9,4,3.95.07,8.19.21,8.19-8.19,8.19a29,29,0,0,1-3.49,0c-3.37-.4-4.28,1.16-4.23,4.34.16,9.3-.07,18.61.13,27.91.08,3.71-.74,5.28-4.94,5.18-10.29-.24-10.29,0-10.28-10.2,0-7.81-.08-15.62,0-23.43,0-2.75-.85-4-3.72-3.81-1.65.14-3.32.05-5,0-7.52-.13-6.52,1.36-6.89-6.91-.17-4.06.91-5.52,5.16-5.26C244.69,151.47,250.86,151.19,257,151.19Z"/></g></g></svg>