<?xml version="1.0" encoding="utf-8"?>
<!-- Generator: Adobe Illustrator 24.1.0, SVG Export Plug-In . SVG Version: 6.00 Build 0)  -->
<svg version="1.1" id="Layer_1" xmlns="http://www.w3.org/2000/svg" xmlns:xlink="http://www.w3.org/1999/xlink" x="0px" y="0px"
	 viewBox="0 0 1920 1080" style="enable-background:new 0 0 1920 1080;" xml:space="preserve">
<style type="text/css">
	.st0{fill:#999999;}
	.st1{fill:#ACA8A8;}
	.st2{fill:#CCCCCC;}
	.st3{fill:#5B5253;}
	.st4{fill:#F5F4F3;}
	.st5{fill:#FEFDFD;}
</style>
<g>
	<path class="st0" d="M469.2,695.6c-10.4,0-20.7-0.1-31.1,0c-1.4,0-1.7-0.4-1.6-1.7c0.1-3.7,0.1-7.4,0-11.1c0-1.4,0.3-2,1.9-1.9
		c2.5,0.1,5.1,0.1,7.7,0c2.4,0,3.9-1.2,4.4-3.2c0.4-1.3,0.1-1.9-1.4-2.1c-4.5-0.4-8.6-1.9-12-5c-0.6-0.6-1.3-0.7-2.1-0.7
		c-18.5,0-37.1,0-55.6,0c-0.6,0-1.2,0-1.8,0.5c-3.5,3.3-7.9,4.9-12.6,5.3c-1.2,0.1-1.3,0.7-1.1,1.7c0.5,2.2,1.9,3.5,4.5,3.6
		c2.6,0.1,5.2,0.1,7.9,0c1.2,0,1.7,0.3,1.6,1.6c-0.1,3.8-0.1,7.7,0,11.5c0,1.4-0.4,1.7-1.7,1.6c-8.6-0.1-17.3,0-25.9,0
		c-0.5,0-1.2-0.2-1.5,0.1c-0.5,0.5-0.8,0.7-1.1,0.8c0.8,0.1,1.3,0.2,1.9,0.2c14.8,0,29.5,0,44.3,0c1.3,0,1.6-0.6,1.6-1.7
		c-0.1-2.1,0-4.2,0-6.3c0-1.1,0.4-1.4,1.4-1.4c6.9,0,13.8,0,20.7,0c1.2,0,1.5,0.4,1.5,1.5c-0.1,1.9,0.1,3.8-0.1,5.7
		c-0.1,1.7,0.4,2.2,2.1,2.2c16-0.1,32.1,0,48.1-0.1c0.6,0,1.9,0.5,1.8-0.6C471,695.2,469.8,695.6,469.2,695.6z M369,679.9
		c-1.4,0-2.7-0.1-3.6-1.3c-0.8-1.1-0.8-1.8,0.8-1.9c2.7-0.3,5.2-1.1,7.6-2.3c0.6-0.3,1.3-0.6,1.8-1.1c2.1-2.3,4.7-2.2,7.5-2.2
		c16.7,0.1,33.5,0,50.2,0c1.5,0,2.8,0.3,4,1.3c3,2.5,6.5,3.7,10.3,4.2c0.6,0.1,1.5-0.1,1.7,0.6c0.2,0.8-0.4,1.5-1.1,2.1
		c-0.9,0.6-1.9,0.7-2.9,0.7c-12.8,0-25.6,0-38.3,0C394.3,679.9,381.7,679.9,369,679.9z M435.4,682.8c-0.1,3.7-0.1,7.4,0,11.1
		c0,1.3-0.2,1.8-1.6,1.7c-4.1-0.1-8.2-0.1-12.3,0c-1.2,0-1.6-0.3-1.5-1.5c0.1-2.1,0-4.2,0.1-6.3c0-1.2-0.2-1.7-1.6-1.7
		c-7.5,0-15.1,0-22.6,0c-1.3,0-1.6,0.5-1.6,1.7c0.1,2.2,0,4.3,0,6.5c0,1-0.2,1.3-1.3,1.3c-4.3-0.1-8.6-0.1-12.8,0
		c-1,0-1.3-0.3-1.3-1.3c0-4,0.1-8,0-12.1c0-1.6,1-1.3,1.9-1.3c8.8,0,17.6,0,26.4,0v0c8.8,0,17.5,0,26.3,0
		C434.9,680.9,435.5,681.2,435.4,682.8z"/>
	<path class="st0" d="M348.9,700.2c-0.5-1.2-0.9-2.3-1.5-3.8c0,0,0,0,0,0c-0.5-0.2-0.5-1.2-0.7-1.7c-2.6-6.2-5.1-12.5-7.7-18.7
		c-0.3-0.6-0.3-1.6-1-1.7c-0.9-0.1-0.8,1-1.1,1.6c-1.2,2.7-2.3,5.4-3.4,8.1c-3.9,9.5-8.8,18.8-7,29.6c0.2,1.3-0.4,1.6-1.6,1.6
		c-2.2,0-4.3,0-6.5,0c0.1,0.4,0.1,0.7,0,1.1c1.8,0,3.6,0,5.4,0c3.8,0,4,0,3.7-3.7c-0.6-7.8,0.8-15,4.3-22c2.2-4.5,3.9-9.2,5.8-13.8
		c0.6,0.1,0.7,0.4,0.8,0.7c1.5,3.6,3,7.2,4.4,10.8c1.7,4.1,3.4,8.3,5.1,12.4c0.2,0.4,0.3,1.2,1,0.8
		C349.4,701.2,349.1,700.6,348.9,700.2z"/>
	<path class="st0" d="M48.1,889.3c0.4,0,0.8,0,1.1,0.1c0.4-30.9,1-61.8,1.5-92.7c0.3,0,0.6,0,0.9,0c0-16.8-0.1-33.6,0-50.5
		c0.1-14.8,0.4-29.6,0.6-44.5c0-1.2,0.7-3.2-1.2-3.3c-1.9-0.1-1.3,2-1.4,3.1c-0.2,5.7-0.4,11.3-0.5,17
		c-0.9,56.1-1.8,112.2-2.8,168.4c0,1.1,0,1.9-0.1,2.6C46.9,889.4,47.5,889.3,48.1,889.3z"/>
	<path class="st0" d="M407,647c-11.5,0-23,0-34.5,0c-2.6,0-4.4-1.3-4.8-3.2c-0.1-0.8-0.1-1.4,1-1.4c12.1-0.2,21.6-6,30-14.2
		c4.8-4.8,4.8-4.8,4.8-11.6c0-4.5,0-4.5,4.4-4.5c3,0,3,0,3,3c0,0.9,0.1,1.8,0,2.7c-0.7,3.8,1,6.6,3.6,9.3c7,7.1,14.9,12.6,24.8,14.7
		c1.9,0.4,3.9,0.8,5.9,0.6c1.6-0.1,1.7,0.7,1.3,1.9c-0.5,1.7-2.3,2.8-4.6,2.8C430.3,647,418.7,647,407,647z M407.1,645.8
		c11.5,0,23,0,34.5,0c1.2,0,2.3-0.1,3.2-0.9c0.3-0.3,0.7-0.7,0.5-1.1c-0.2-0.5-0.7-0.2-1-0.3c-1.5-0.2-2.9-0.3-4.4-0.6
		c-10-1.9-18.1-7.3-25.3-14.2c-3.5-3.3-5.5-6.8-4.9-11.9c0.4-4,0.1-4-3.9-3.8c-1.1,0-1.5,0.3-1.4,1.4c0.1,2.5,0,5,0,7.5
		c0,0.8-0.1,1.5-0.6,2.1c-8.9,10.6-19.5,18.3-33.8,19.5c-0.3,0-0.8-0.2-1,0.4c-0.1,0.4,0.2,0.7,0.4,1c0.9,0.9,2,1,3.2,1
		C384.1,645.8,395.6,645.8,407.1,645.8z"/>
	<path class="st0" d="M407.2,660.9c-11.6,0-23.3,0-34.9,0c-2.8,0-4.3-1.3-4.6-3.8c-0.1-1,0.2-1.5,1.2-1.8c3.2-0.8,6.3-1.7,9.1-3.5
		c0.5-0.3,1.1-0.2,1.7-0.2c18.4,0,36.8,0,55.2,0c0.6,0,1.3-0.1,1.9,0.3c2.6,1.8,5.7,2.6,8.7,3.4c1.2,0.3,1.5,0.8,1.3,2
		c-0.4,2.4-1.8,3.6-4.6,3.6C430.4,660.9,418.8,660.9,407.2,660.9z M444.8,658.6c1.4-1.5,1.3-1.9-0.5-2.5c-2.5-0.7-5-1.5-7.3-2.8
		c-0.8-0.5-1.6-0.7-2.5-0.7c-18.2,0-36.4,0-54.6,0c-0.6,0-1.2-0.1-1.7,0.2c-2.6,1.6-5.6,2.5-8.5,3.3c-1.1,0.3-1.1,0.9-0.7,1.7
		c0.7,1.7,2,2.1,3.7,2.1c13,0,25.9,0,38.9,0c10.1,0,20.2,0,30.3,0C442.9,659.9,444.2,660.2,444.8,658.6L444.8,658.6z"/>
	<path class="st0" d="M272.8,599.2c7.3,0,14.6,0.1,21.9,0c1.8,0,2.3,0.5,2.2,2.2c-0.1,2.6,0,5.2,0,7.8c0,0.4,0.2,1.1-0.5,1.2
		c-0.9,0.1-0.9-0.6-0.9-1.2c0-2.1,0-4.2,0.1-6.3c0.1-1.6-0.4-2.4-2.2-2.4c-13.8,0.1-27.6,0.1-41.4,0c-1.7,0-2.1,0.8-2.1,2.3
		c0.1,2.2,0.1,4.4,0.1,6.5c0,0.4,0.1,1.1-0.7,1.1c-0.7,0-0.7-0.6-0.7-1.1c0-2.9,0-5.9,0-8.8c0-1.7,1.1-1.4,2-1.4
		C257.9,599.2,265.3,599.2,272.8,599.2z"/>
	<path class="st0" d="M272.6,550.8c-2,3.5-2.3,6.9-1.9,10.3c0.4,2.6-0.7,4.3-2.4,6c-4.4,4.5-9.7,7.9-15.1,11.2
		c-0.8,0.5-1.6,1-2.4,1.4c-0.4,0.2-1,0.6-1.3,0.1c-0.5-0.7,0.2-1,0.7-1.3c2.6-1.7,5.3-3.2,7.8-5c3.6-2.4,7-4.9,9.9-8.1
		c1.1-1.2,1.6-2.4,1.3-4.1c-0.5-3.4,0-6.7,1.3-9.8c0.4-1,0.7-2.6,2-2.5c1.2,0,1.5,1.5,1.9,2.4c1.3,3.1,1.8,6.3,1.3,9.6
		c-0.3,2.1,0.4,3.5,1.7,4.9c4.7,4.8,10.3,8.3,15.9,11.8c0.5,0.3,1,0.6,1.5,0.9c0.4,0.3,1,0.5,0.7,1.1c-0.3,0.6-0.8,0.4-1.3,0.1
		c-6.7-4-13.4-8-18.6-13.9c-1.1-1.2-1.5-2.6-1.3-4.4C274.9,558,274.7,554.4,272.6,550.8z"/>
	<path class="st0" d="M272.7,633c9.6,0,19.3,0.1,28.9-0.1c2.4,0,3,0.7,2.9,3c-0.2,3.5,0,7-0.1,10.5c0,0.5,0.2,1.4-0.6,1.4
		c-0.8,0-0.7-0.8-0.7-1.3c0-3.3-0.1-6.7,0-10c0-1.4-0.2-2-1.9-2c-19.1,0.1-38.2,0.1-57.3,0c-1.6,0-2,0.5-2,2c0.1,3.3,0,6.7,0,10
		c0,0.5,0.2,1.4-0.6,1.4c-0.8,0-0.6-0.8-0.6-1.4c0-3.9,0.1-7.9,0-11.8c0-1.9,1.1-1.7,2.3-1.7C253,633,262.9,633,272.7,633z"/>
	<path class="st0" d="M396.9,717.3c0-2.6-0.2-5.2,1-7.7c2-4.3,6.3-6.6,11-5.8c4.6,0.8,8.2,4.4,8.5,9.1c0.2,3,0.1,6,0.1,9
		c0,0.4,0.1,1.1-0.5,1c-0.6-0.1-0.4-0.7-0.4-1.1c0-2.6,0-5.1,0-7.7c-0.1-6.7-6.3-11-12.6-8.8c-3.4,1.2-5.9,4.8-6,8.8
		c0,2.6,0,5.2,0,7.9c0,0.4,0.1,0.9-0.4,0.9c-0.7,0.1-0.6-0.6-0.6-1C396.9,720.3,396.9,718.8,396.9,717.3z"/>
	<path class="st0" d="M272.6,616.1c8.9,0,17.7,0,26.6,0c1.7,0,2.4,0.4,2.3,2.2c-0.1,2.4,0,4.9,0,7.3c0,0.6,0.2,1.7-0.6,1.7
		c-1.1,0-0.7-1.1-0.7-1.8c-0.1-2.2-0.1-4.4,0-6.5c0-1.2-0.4-1.5-1.6-1.5c-17.3,0-34.6,0-52,0c-1.2,0-1.6,0.3-1.6,1.6
		c0.1,2.4,0,4.9,0,7.3c0,0.5,0,1.1-0.7,1c-0.5,0-0.6-0.6-0.6-1c0-3,0-6,0-9c0-1.7,1.3-1.2,2.2-1.2
		C254.9,616.1,263.8,616.1,272.6,616.1z"/>
	<path class="st0" d="M31.4,649.4c-0.2-1,0-2,0.8-2.7c3.2-3.3,6.5-6.6,9.7-10c0.8-0.8,1.7-1.2,2.6-0.5c1.1,1-0.1,1.7-0.7,2.5
		c-0.4,0.5-0.9,1-1.4,1.4c-7.9,5.2-9.1,12.5-7,21.1c0.7,3,1.2,6.3,1,9.4c-0.4,8,3.4,12.8,10.5,15.9c1.9,0.9,6.5,1.4,4.8,4.7
		c-0.9,1.8-4-1.5-6.1-2.4c-8.5-3.3-12.2-9.3-12-18.6C33.8,663.3,32.2,656.4,31.4,649.4z"/>
	<path class="st0" d="M275.8,686.2c0,0.2,0,0.3,0,0.5c-0.2,0.7,0.5,2-0.6,2.1c-1.2,0-0.5-1.3-0.7-2c-0.1-0.5,0-1,0-1.5
		c-0.2-1-0.5-2-1.8-2c-1.3,0-1.7,0.9-1.8,2c-0.1,0.9,0,1.8-0.1,2.8c0,0.4,0,0.9-0.6,0.9c-0.6,0-0.6-0.4-0.6-0.9c0-0.6,0-1.2,0-1.8
		c0-3,1-4.5,3.1-4.5C274.7,681.7,275.8,683.2,275.8,686.2z"/>
	<path class="st0" d="M275.8,664.6c0,0.1,0,0.2,0,0.2c-0.2,0.8,0.6,2.3-0.6,2.3c-1.2,0-0.5-1.4-0.7-2.2c-0.1-0.3,0-0.7,0-1
		c-0.1-1.3-0.4-2.4-1.9-2.4c-1.4,0-1.7,1.1-1.8,2.3c0,0.8,0,1.7,0,2.5c0,0.4,0,0.9-0.6,0.9c-0.6,0-0.7-0.4-0.7-0.8
		c0-1.3-0.1-2.7,0.1-4c0.3-1.5,1.5-2.4,3.1-2.4c1.6,0,2.6,1,3,2.5C275.8,663.2,275.7,663.9,275.8,664.6
		C275.7,664.6,275.7,664.6,275.8,664.6z"/>
	<path class="st0" d="M275.8,624.8c0,0.5,0,1,0,1.5c0,0.5,0,1.1-0.7,1.1c-0.5,0-0.5-0.6-0.5-1c0-0.9,0-1.8-0.1-2.8
		c-0.1-1-0.6-1.8-1.7-1.8c-1.3-0.1-1.8,0.8-1.9,1.9c-0.1,0.8,0,1.7-0.1,2.5c0,0.5,0.1,1.1-0.6,1.2c-0.7,0.1-0.7-0.6-0.7-1.1
		c0-0.5,0-1,0-1.5c0-3.1,1-4.4,3.2-4.4C274.8,620.3,275.8,621.7,275.8,624.8z"/>
	<path class="st0" d="M269.5,644.7c-0.2-1.6,0.1-3.3,2.2-4.1c1.8-0.7,3.8,0.6,4,2.5c0.2,1.3,0.1,2.7,0,4c0,0.3-0.2,0.6-0.6,0.6
		c-0.4,0-0.6-0.4-0.6-0.7c-0.1-1.1,0-2.2-0.1-3.2c-0.1-1.1-0.5-1.9-1.8-2c-1.3,0-1.7,0.9-1.8,2c-0.1,0.9,0,1.8,0,2.7
		c0,0.5,0,1.1-0.6,1.1c-0.7,0-0.6-0.6-0.6-1.1C269.5,646.1,269.5,645.6,269.5,644.7z"/>
	<path class="st0" d="M70.8,890.3c0.6-0.2,1.2-0.3,1.9-0.3c0.2,0,0.3,0,0.5,0c-0.1-0.5-0.2-1-0.2-1.7c-0.5-41-1.3-82-1.9-122.9
		c-0.3-21-0.7-42-1.1-63c0-1.3,0.7-3.6-1.5-3.5c-1.6,0.1-1.2,2.1-1.1,3.4c0.1,5,0.3,10,0.4,15c0.9,55.5,1.8,110.9,2.7,166.4
		C70.5,886.6,70.5,888.7,70.8,890.3z"/>
	<path class="st0" d="M314.3,701.4c-0.1,4.9,0,9.9,0,14.8c0,0.2,0,0.5,0,0.7c0.2,0,0.3,0,0.5,0c0.2,0,0.4,0,0.6,0.1
		c0.1-5.6,0-11.1,0.1-16.7c0-1.5-0.4-2.1-2-2c-1.7,0.1-3.3,0-5,0c-25.6,0-51.1,0-76.7-0.1c-2.5,0-3.1,0.7-3,3.1
		c0.2,4.8,0.1,9.5,0.1,14.3c0,0.9,0,1.6-0.1,2.1c0.2,0,0.3,0,0.5,0c0.3,0,0.6,0,0.8,0.1c-0.1-5.4,0-10.8-0.1-16.3
		c0-1.4,0.2-2.1,1.9-2.1c26.8,0.1,53.6,0,80.4,0C313.9,699.3,314.3,699.9,314.3,701.4z"/>
	<path class="st0" d="M67.1,594.5c0-6.1-0.1-12.3,0.1-18.4c0-1.6-1-4.7,1.1-4.6c2.6,0.1,1.4,3.2,1.4,4.9c0.1,10.6,0.1,21.3,0.1,31.9
		c0,7.9,0,7.9,8,9.7c2.9,0.6,5.8,1.3,8.7,2c0.8,0.2,1.7,0.4,1.5,1.5c-0.2,1.1-1.1,1-2,0.9c-5.7-1.3-11.3-2.6-16.9-3.9
		c-2.3-0.5-1.9-2.4-1.9-4C67.1,607.8,67.1,601.2,67.1,594.5z"/>
	<path class="st0" d="M88.1,649.8c-1.1,10.3-2.2,20.2-3.2,30.1c-0.1,1.2-0.3,2.4-1.4,3.1c-4.5,2.8-9.1,5.5-13.7,8.2
		c-0.7,0.4-1.6,0.8-2.2-0.1c-0.6-0.9,0.2-1.6,0.9-2c3.4-2.1,6.8-4.3,10.3-6.1c2.5-1.3,3.5-3.1,3.8-5.8c0.8-8.6,1.7-17.2,2.9-25.8
		c0.5-3.4-1.7-4.8-3.5-6.6c-2.1-2.2-4.2-4.3-6.2-6.5c-0.4-0.4-0.4-1.2-0.5-1.8c0-0.1,0.8-0.5,1.2-0.4
		C78.8,636.4,88.1,647.9,88.1,649.8z"/>
	<path class="st0" d="M59.2,531.1c0-24.4,0-48.6,0-73.9C62,462.4,61.6,528.4,59.2,531.1z"/>
	<path class="st0" d="M51.2,571c1.8,1.4,1.3,3,1.3,4.4c0,12.8-0.1,25.7,0.1,38.5c0,3.3-1,4.8-4.3,5.3c-3.9,0.6-7.8,1.9-11.7,2.7
		c-1.5,0.3-3.9,1.7-4.4-0.2c-0.7-2.4,2.3-1.8,3.6-2.2c3.5-1.1,7.1-1.8,10.7-2.5c2.9-0.5,3.7-1.8,3.6-4.7c-0.2-12-0.1-24,0-36
		C50.1,574.6,49.4,572.7,51.2,571z"/>
	<path class="st0" d="M64.8,570.5c-1.7-1.1-1.3-2.5-1.3-3.8c0-11.3,0-22.5,0-33.8c0-1.3-0.7-3.7,1.4-3.6c2,0.1,1.1,2.4,1.2,3.7
		c0.1,11.1,0.1,22.2,0,33.3C66,567.7,66.6,569.4,64.8,570.5z"/>
	<path class="st0" d="M32.6,627.3c18.2,0,36.3,0,54.5,0c0,0.4,0,0.8,0,1.2c-18.2,0-36.3,0-54.5,0C32.6,628.1,32.6,627.7,32.6,627.3z
		"/>
	<ellipse class="st0" cx="55" cy="549.7" rx="0.8" ry="29"/>
	<path class="st0" d="M233.3,689.4c0-5.5,0-10.5,0-15.4c0-1,0.8-0.9,1.4-1c1.5,0,3,0,4.5,0c23.3,0,46.6,0,69.8-0.1
		c2.3,0,3,0.6,2.9,2.9c-0.2,3.5,0,7-0.1,10.5c0,0.8,0.2,1.6-0.4,2.3c-1.2-0.4-0.8-1.3-0.8-1.9c0-3.6-0.1-7.2,0-10.8
		c0-1.4-0.3-1.9-1.8-1.9c-24.3,0-48.6,0-72.9,0c-1.4,0-1.7,0.5-1.7,1.7c0.1,3.5,0,7,0,10.5C234.5,687.3,234.8,688.1,233.3,689.4z"/>
	<path class="st0" d="M272.6,652.5c10.9,0,21.8,0.1,32.7,0c2.1,0,3,0.4,2.9,2.7c-0.2,3.3,0,6.5-0.1,9.8c0,0.7,0.4,2-0.7,2
		c-1,0-0.5-1.2-0.5-1.9c-0.1-3.1-0.1-6.2,0-9.3c0.1-1.6-0.3-2.2-2.1-2.2c-21.4,0.1-42.9,0.1-64.3,0c-1.7,0-2.1,0.6-2.1,2.2
		c0.1,3.1,0.1,6.2,0,9.3c0,0.7,0.4,1.9-0.5,1.9c-1.1,0-0.7-1.3-0.7-2c0-3.4,0.1-6.9-0.1-10.3c-0.1-1.8,0.6-2.2,2.3-2.2
		c10.1,0.1,20.3,0,30.4,0C270.8,652.5,271.7,652.5,272.6,652.5z"/>
	<path class="st0" d="M293,593.4c-1.1-2.3-0.8-4.7-0.7-7c0.1-2.2-0.5-2.8-2.8-2.8c-11.2,0.1-22.5,0.2-33.7,0c-2.7,0-3.3,0.8-3,3.2
		c0.2,1.8,0,3.7,0,5.5c0,0.5-0.1,1.1-0.7,1c-0.5,0-0.6-0.6-0.6-1c0-2.9,0-5.9,0-8.8c0-1.4,1.1-1.2,2-1.2c4.9,0,9.9,0,14.8,0
		c7.5,0,14.9,0.1,22.4-0.1c2.4-0.1,3.1,0.8,2.9,3C293.5,588,293.9,590.7,293,593.4z"/>
	<path class="st0" d="M269.8,593.6c-0.4-2.1-0.7-4.1,0.2-6c0.5-1.2,1.7-1.6,2.9-1.5c1.2,0.1,2.1,0.7,2.5,1.8c0.6,1.6,0.2,3.3,0.2,5
		c0,0.4-0.3,0.6-0.6,0.5c-0.2,0-0.4-0.3-0.4-0.5c-0.1-0.4,0-0.8-0.1-1.2c-0.2-1.6,0.7-4.1-1.8-4.2c-2.7,0-1.7,2.6-2,4.3
		C270.6,592.3,271,593.1,269.8,593.6z"/>
	<path class="st0" d="M270,610.3c-0.4-2.1-1.3-4.3,0.6-6.2c1.1-1.1,2.5-1.2,3.7-0.3c2.4,1.8,1.1,4.2,1.4,6.8
		c-1.8-1.1-1.1-2.3-1.2-3.3c-0.1-1.3-0.3-2.7-2-2.6c-1.7,0-1.8,1.4-1.9,2.7C270.7,608.4,270.9,609.4,270,610.3z"/>
</g>
<g>
	<path class="st1" d="M599,644.2c-10,0-19.9,0-29.9,0c-3.6,0-6.9-0.8-9.3-3.8c-1.1-1.4-1.7-3.6-0.4-4.5c2.2-1.5,1.9,1.3,2.5,2.3
		c1.5,2.5,3.8,3,6.4,3c20.3,0,40.6,0,60.8,0c3,0,6.1-0.4,6.9-4.2c0.2-1,0.8-2,2.1-1.4c1.1,0.5,1,1.7,0.7,2.6c-1.7,4.7-5.5,5.9-9.9,6
		C618.9,644.3,609,644.2,599,644.2z"/>
	<path class="st1" d="M599,626.1c-9.8,0-19.6,0.1-29.4,0c-4.1,0-8-0.8-10.3-4.8c-0.7-1.3-1.3-3.3,0.2-4c1.8-0.8,1.7,1.4,2.3,2.5
		c1.3,2.6,3.6,3.4,6.2,3.4c20.6,0,41.2,0.1,61.8,0c2.9,0,5.6-0.9,6.4-4.3c0.2-1,0.9-2,2.1-1.3c1,0.6,1,1.7,0.6,2.6
		c-1.9,4.8-6,5.9-10.5,6C618.6,626.2,608.8,626.1,599,626.1z"/>
	<path class="st1" d="M598.6,661.1c-9.8,0-19.6,0-29.4,0c-4.2,0-8-1-10-5.1c-0.6-1.2-1-2.9,0.4-3.6c1.7-0.9,1.6,1.1,2,2
		c1.2,2.9,3.6,3.8,6.4,3.8c20.6,0,41.2,0,61.9,0c2.8,0,5.3-0.9,6.1-4c0.3-1,0.8-2.1,2-1.6c1.4,0.5,1.2,1.9,0.8,3
		c-2,4.4-5.8,5.6-10.2,5.6C618.5,661.2,608.6,661.1,598.6,661.1z"/>
	<path class="st1" d="M1218.3,558.1c1.8,2.1,1.2,4.2,1.3,6c0.9,38.9,1.8,77.7,2.5,116.6c0.1,4.1,1.1,5.6,5.3,5.2
		c3.6-0.4,7.3,0.1,11-0.1c3.6-0.3,5,1.2,4.3,4.5c-0.9,4.7,0.9,5.9,5.7,6.4c5.8,0.5,12.4,0.6,16,6.9c0.2,0.4,1.2,0.5,1.8,0.5
		c9.3-0.8,18.2,0.7,27.1,5.1c0-10,0-19.2,0-28.5c0-14.8,0.1-29.6-0.1-44.4c0-3.2,0.9-4.6,4.2-4.2c3.4,0.4,6,0.1,5.3-4.5
		c-0.3-2,1.2-2.4,2.9-2.4c15.3,0,30.6,0.1,45.9,0c4,0,2.9,2.8,2.9,4.9c0.1,23.8,0,47.5,0,71.3c0,15.8,0,31.6,0,47.4
		c0,3.1-0.7,6.1,4.5,6.1c4.9,0,4.7-2.5,4.7-5.9c-0.1-25.9,0.1-51.9-0.2-77.8c0-4.6,1.1-6.5,5.8-6.7c16.5-0.8,32.9-2.1,49.4-0.2
		c4,0.4,5.6,1.6,5.6,6.1c-0.2,29.2-0.1,58.5-0.1,87.7c0,1.7,0.6,3.6-1.2,5c-2.2-1.6-1.4-3.7-1.4-5.6c-0.1-28.6-0.1-57.2,0-85.8
		c0-3.2-0.6-4.8-4.1-5.1c-16.3-1.3-32.6-0.7-48.9,0.6c-3.5,0.3-2.2,2.8-2.2,4.4c-0.1,26.3-0.1,52.5-0.1,78.8c0,1.3,0,2.7,0,4
		c0,1.9-0.9,2.7-2.8,2.6c-2.8-0.1-5.7-0.1-8.5,0c-2.2,0.1-3-0.9-2.9-2.9c0.1-1.3,0-2.7,0-4c0-39.1-0.1-78.1,0.1-117.2
		c0-4.5-1.2-5.6-5.5-5.5c-12.3,0.3-24.6,0.2-37,0.1c-2.8,0-5,0.1-4.5,3.9c0.5,3.9-2.6,3.3-4.7,3c-4-0.5-5,1.1-4.9,5
		c0.2,26.3,0.1,52.5,0.1,78.8c0,1.8,0.6,3.7-0.9,5.6c-2.5-2.3-1.4-5.2-1.3-7.7c0.2-3.2-1.1-4.7-3.9-5.9c-10.4-4.4-20.9-5.2-31.6-1.4
		c-1.2,0.4-3.1,2-3.8,0c-0.6-1.8,1.9-1.9,3.2-2.4c1.7-0.7,3.5-1.1,5.9-1.8c-7.9-5.7-16.3-6.1-25-4.9c-3.1,0.4-6.1,1.6-9.2,2.4
		c-0.9,0.2-2.1,0.7-2.4-0.7c-0.3-1.1,0.8-1.4,1.5-1.7c3-0.9,6-2.1,9.1-2.4c5-0.4,2.7-4,3.1-6.3c0.5-3.3-2.1-2.7-3.9-2.7
		c-3.8,0-7.7-0.3-11.5,0.1c-4.1,0.3-5.4-1-5.4-5.2c-0.3-25.1-0.8-50.2-1.3-75.3c-0.3-14.6-0.6-29.2-0.9-43.9
		C1217.2,562.2,1216.7,560.3,1218.3,558.1z"/>
	<path class="st1" d="M936,722.9c-59.6,0-119.2-0.1-178.8,0.1c-4.8,0-6.3-1.2-6.1-6.1c0.4-9.9,0.2-9.9-9.7-9.9c-1.3,0-2.7-0.1-4,0
		c-4.6,0.4-8.2-0.7-12-4.2c-8.8-8.1-19.2-7.8-29.9-3.6c-1.5,0.6-3.6,2.9-4.5,0.7c-0.9-2.1,2.2-2.4,3.7-3c12.6-5.1,24.4-4.4,34.5,5.6
		c1.5,1.5,3.1,1.7,5,1.7c5,0,10,0.2,15-0.1c3.8-0.2,4.8,1.2,4.7,4.9c-0.1,11.1,0,11.1,11,11.1c115.8,0,231.7,0,347.5,0
		c7.1,0,6.2,0.9,6.3-6.5c0-12.7,0-12.7,12.7-12.7c6.5,0,13-0.2,19.5,0.1c2.3,0.1,5.3-1.8,6.9,1.9c0.4,1,2.2-0.6,3.3-1.1
		c11.4-5.7,23.2-6.7,35.3-2.4c1.2,0.4,3.7,0.4,3,2.4c-0.8,2.2-2.6,0.3-3.7-0.1c-12.6-4.4-24.5-2.9-35.9,3.8
		c-2.3,1.3-2.2,1.3-3.5-1.4c-0.5-1.1-1.7-0.8-2.6-0.8c-9.7,0-19.3,0-29-0.1c-2.8,0-3.4,1.2-3.2,3.6c0.2,3.3-0.3,6.7,0.1,10
		c0.6,5-1.5,6-6.2,6c-29.3-0.2-58.6-0.1-87.9-0.1C997,722.9,966.5,722.9,936,722.9z"/>
	<path class="st1" d="M1102.6,772.6c0-6.8-0.1-13.7,0-20.5c0-1.6,1.6-1.4,2.7-1.4c2.8,0,5.7-0.3,8.5,0c4,0.5,5.1-1.1,5-4.9
		c-0.1-3.6-0.7-5.1-4.8-5.1c-30.5,0.2-60.9,0.1-91.4,0.1c-87.4,0-174.8,0-262.2,0c-0.5,0-1.1-0.1-1.5,0c-1.6,0.6-4.6-1.5-4.9,1.5
		c-0.2,2.9,2.7,1.5,4.2,1.7c1.9,0.2,2.7,1,2.6,2.8c0,0.8,0,1.7,0,2.5c0,10.7,0,10.7,11,10.7c3.7,0,7.3,0.1,11,0c3-0.1,4.4,1,4,4
		c0,0.3,0,0.7,0,1c-0.4,2.5,0.9,7.1-1,7c-3.1-0.2-1.3-4.3-1.5-6.7c-0.1-2.8-1.7-2.7-3.6-2.7c-5.8,0-11.7-0.3-17.5,0.1
		c-4.2,0.3-5.3-1.4-4.9-5.1c0.2-1.6,0-3.3,0.1-5c0.1-3.4,0.5-6.5-4.8-6.1c-3.4,0.3-2.1-3-2.3-4.9c-0.2-2.2,0.6-3.4,3.1-3.4
		c5.8,0.1,11.7,0,17.5,0c114.5,0,229.1,0,343.6-0.1c4.8,0,6.3,1.3,6.1,6.1c-0.4,8.7-0.1,8.7-8.8,8.7c-7.9,0-7.9,0-7.9,7.8
		c0,3.5-0.1,7-0.2,10.5c0,0.4-0.4,0.8-0.6,1.3C1103.6,772.6,1103.1,772.6,1102.6,772.6z"/>
	<path class="st1" d="M1218,507.3c-2.2-2.1-1.3-4.7-1.3-7.1c-0.2-20.8-0.3-41.5-0.4-62.3c0-2.5-0.2-4.9-2.2-6.8
		c-2.2,2-1.9,4.6-1.9,7.2c-0.2,21.1-0.4,42.2-0.7,63.3c0,1.9,0.4,3.9-1.1,6c-1.8-1.5-1.4-3.2-1.4-4.7c0.1-22.4-1-45,0.8-67.2
		c1.6-19.7,1.7-39.3,2.9-58.9c0.1-1.3-0.5-3.7,1.6-3.5c1.9,0.2,1,2.5,1.1,3.8c0.6,15.6,0.4,31.3,1.9,46.8c2.4,26,1.3,52,2,78
		C1219.4,503.7,1220.4,505.9,1218,507.3z"/>
	<path class="st1" d="M1208.8,623c0,20.1-0.1,40.2,0.1,60.3c0,3.9-1.1,5.3-5,4.9c-3.5-0.3-7,0.1-10.5-0.1c-3.6-0.3-5.8,0.4-5.1,4.7
		c0.2,1.1,0.5,3.1-1.4,3.1c-1.5,0-1.1-1.8-1.2-2.9c-0.6-7.2-0.5-7.1,6.6-7.3c4.6-0.1,10.7,2.1,13.3-1c2.3-2.7,0.8-8.5,0.9-13
		c0.7-36.2,1.4-72.4,2.2-108.6c0-0.8,0-1.7,0.1-2.5c0.1-0.9,0.3-1.9,1.2-2c1.3-0.1,1.4,1.1,1.5,2.1c0,1.8-0.1,3.7-0.1,5.5
		c0,18.9,0,37.9,0,56.8C1210.5,623,1209.6,623,1208.8,623z"/>
	<path class="st1" d="M598.8,684.8c-13.5,0-27,0-40.4,0c-4,0-8.1-0.3-10.6-4.3c-0.8-1.3-1.6-3.3-0.2-4c1.8-1,1.7,1.4,2.3,2.4
		c1.9,3.4,5.1,3.3,8.3,3.3c22.8,0,45.6,0,68.4,0c4.5,0,9,0,13.5,0c3.6,0,7.1-0.3,8.3-4.7c0.2-0.9,0.9-1.6,1.8-1
		c0.4,0.3,0.7,1.2,0.6,1.7c-0.5,2.9-2.3,4.7-5,5.7c-2.4,0.8-4.9,0.9-7.4,0.9C625.1,684.7,612,684.7,598.8,684.8z"/>
	<path class="st1" d="M655,688.5c-2.1,0.7-2.7,5.3-4.8,3.6c-1.9-1.6,1.6-3.7,2.8-5.5c1.7-2.7,3.4-5.8,7-1.7c1.2,1.4,2.4-0.2,3.3-1
		c3.4-2.9,6.6-6,10.1-8.9c1.6-1.3,2-2.9,1.9-4.8c-0.1-2.2,0-4.3,0.1-6.5c0-0.9,0.4-1.7,1.4-1.7c1,0,1.1,1,1.2,1.9c0,0.2,0,0.3,0,0.5
		c-2.5,11,7.2,14.4,12.9,20.3c0.7,0.7,1.6,1.4,2.5,0.3c3.5-4.3,5.1-0.8,7,1.7c0.2,0.3,0.5,0.5,0.6,0.8c0.8,1.6,3.9,3.3,2.2,4.7
		c-1.9,1.6-2.9-1.7-4-3c-1.7-2-2.9-4.3-5.5-1c-1.4,1.7-2.7,0.2-3.7-0.8c-3.6-3.2-7.3-6.3-10.7-9.7c-1.8-1.7-3.1-1.9-4.9,0
		c-2.8,2.8-5.9,5.3-8.9,8c-2.3,2-4.2,5.1-7.6,1c-1.1-1.3-1.9,0.4-2.3,1.4C655.1,688.1,655,688.3,655,688.5z"/>
	<path class="st1" d="M495,692.8c0.2-4.2,3.8-6.4,5.9-9.4c1.1-1.6,2.4-0.5,3.3,0.6c1.8,2.2,3.3,1.5,4.8-0.3c0.3-0.4,0.7-0.7,1.1-1
		c3.2-2.9,6.7-5.5,9.6-8.7c3-3.4-0.1-8.1,1.8-12c2.8,0.7,1.8,3,1.6,4.4c-0.6,5,1.1,8.6,5.2,11.4c2,1.4,3.8,3.2,5.6,4.9
		c2.1,2.1,4,4.1,6.7,0.6c0.7-0.9,1.8-0.7,2.6,0.1c0.5,0.5,1,1,1.3,1.5c1.3,2.5,5.9,5.5,4,7c-2.3,1.9-3.6-2.9-5.4-4.7
		c-1.4-1.4-2.2-1-3.2,0.2c-1.8,2.2-3.3,1.3-4.9-0.2c-3.4-3.1-7.1-6-10.4-9.3c-2.1-2.1-3.4-1.8-5.3,0.1c-3.5,3.3-7.2,6.4-10.8,9.6
		c-1.2,1.1-2.4,2.2-3.7,0.5c-2.5-3.1-3.6-0.8-5.1,1c-1.3,1.5-1.8,4.2-4.7,3.8L495,692.8z"/>
	<path class="st1" d="M632.6,692.3c7.8,0.4,14.3,2.9,19.3,8.6c0.7,0.8,2,1.8,0.8,2.9c-1,0.9-1.8-0.3-2.4-1c-8-8.8-17.8-9.4-28.4-6.1
		c-0.8,0.2-1.6,0.5-2.4,0.8c-0.8,0.3-1.8,0.5-2.2-0.4c-0.6-1.3,0.6-1.7,1.5-2C623.4,693.3,628.1,692.4,632.6,692.3z"/>
	<path class="st1" d="M578.6,694.5c-13.2-0.8-24.5,1.5-35.2,7.1c-0.9,0.5-2.3,2.4-3.2,0.3c-0.7-1.7,1.3-2.1,2.3-2.6
		c11-5.8,22.6-8.2,35-7.2c1.1,0.1,2.7-0.2,2.6,1.4C580,695.2,578.4,694.5,578.6,694.5z"/>
	<path class="st1" d="M1230.4,535.1c0,0.7,0.1,1.3,0,2c-0.3,2.8,1.2,6.2-0.7,8.2c-3,3-6.9,5.1-10.4,7.6c-0.5,0.4-1.2,0.6-1.7-0.1
		c-0.5-0.9-0.1-1.6,0.6-2.1c2.2-1.5,4.3-3.2,6.6-4.5c2.5-1.4,3.3-3.3,3.2-6.1c-0.2-4.3-0.1-8.6,0-12.9c0-1,0-2.3,1.2-2.4
		c1.8-0.1,1.4,1.5,1.4,2.5C1230.4,529.8,1230.4,532.4,1230.4,535.1z"/>
	<path class="st1" d="M494.9,692.7c0.3,3.4,5.5,2.4,5.7,6c-0.9,0.8-1.6,0.7-2.4,0.2c-8-5.4-16.9-6.3-26.2-4.6
		c-1.1,0.2-3,1.4-3.3-0.5c-0.3-1.7,1.7-1.6,2.9-1.8c7-1.6,13.8-1.2,20.6,1c0.8,0.3,1.9,1.8,2.8-0.1
		C495,692.8,494.9,692.7,494.9,692.7z"/>
	<path class="st1" d="M1199.3,523.1c1.9,5,1.5,8.8,1.1,12.4c-0.7,6.3,1.3,10.4,6.9,13.2c1.5,0.7,4.8,1.9,3.6,3.8
		c-1.3,2-3.2-1-4.8-1.7c-7-2.9-9.3-8.2-8-15.5C1198.6,531.7,1197.5,528,1199.3,523.1z"/>
	<path class="st1" d="M1031.3,772.7c0-9.4,0-18.8,0-28.2c0-0.5,0.4-1.3,0.9-1.5c0.7-0.3,1.3,0.2,1.3,1c-0.2,9.5,0.9,19.1-0.6,28.6
		C1032.9,772.6,1032.4,772.6,1031.3,772.7z"/>
	<path class="st1" d="M827.4,742.9c0,9.6,0,19.3,0,28.9c-0.6,0-1.1,0-1.7,0c-0.2-9.6-0.2-19.3,0.1-29
		C826.3,742.9,826.9,742.9,827.4,742.9z"/>
	<path class="st1" d="M1201.9,521.2c0-4.3,3.1-7.8,7.5-8.5c0.7-0.1,1.4-0.1,1.7,0.5c0.4,0.7,0,1.4-0.6,1.6c-5,1.5-7,4.8-6.2,9.9
		c0.1,0.6-0.2,1.4-1,1.5c-1.1,0.1-1.3-0.8-1.4-1.6C1201.8,523.5,1201.9,522.4,1201.9,521.2z"/>
	<path class="st1" d="M1225.4,526.3c-0.8,0-1.2-0.6-1.2-1.3c0.4-4.6-0.4-8.5-5.8-9.8c-0.8-0.2-1.5-1-1-1.9c0.4-1,1.3-0.6,2.1-0.4
		C1226.3,515,1228.3,519.5,1225.4,526.3z"/>
	<path class="st1" d="M961.7,734.9c-0.5-0.3-1-0.5-1-0.7c-0.6-2.5-1.3-5,0.4-7.4c0.1-0.1,1.1,0.1,1.2,0.3
		C962.8,729.7,963.3,732.4,961.7,734.9z"/>
	<path class="st1" d="M1059.6,730.9c-0.3,1.3,0.6,3.8-1.3,3.6c-2.1-0.2-1.2-2.6-1.2-4.1c0-1.3-0.6-3.7,1.3-3.5
		C1060.6,727,1059.1,729.5,1059.6,730.9z"/>
	<path class="st1" d="M1105.5,730.3c0.5-1.2-0.8-3.7,1.3-3.4c2,0.2,1.1,2.7,1.1,4.2c0,1.2,0.7,3.7-1.3,3.4
		C1104.6,734.2,1106,731.7,1105.5,730.3z"/>
	<path class="st1" d="M768.3,735.1c-1-0.6-1.2-0.6-1.3-0.8c-1.1-2.5-1.4-5,0.1-7.4c0.1-0.2,1.2-0.1,1.2,0.1
		C769.2,729.6,768.9,732.1,768.3,735.1z"/>
	<path class="st1" d="M838.6,730.5c-0.2,1.7,0.4,4-1.3,4c-2.2,0-1.3-2.5-1.4-4c-0.1-1.3-0.6-3.7,1.2-3.7
		C839.5,726.9,838,729.5,838.6,730.5z"/>
	<path class="st1" d="M864.7,735.3c-0.8-0.9-1.3-1.2-1.3-1.6c-0.2-2.2-1-4.6,0.5-6.6c0.1-0.2,1.2-0.1,1.3,0
		C865.9,729.7,866.2,732.3,864.7,735.3z"/>
	<path class="st1" d="M935.5,730.4c-0.2,1.7,0.4,4.1-1.2,4.1c-2.3,0-1.4-2.4-1.5-3.8c0-1.3-0.7-3.7,1.1-3.7
		C936.4,726.8,934.8,729.4,935.5,730.4z"/>
	<path class="st1" d="M1009.2,726.4c0.9,0.5,1.3,0.6,1.4,0.9c0.7,2.4,0.8,4.8-0.2,7.1c-0.1,0.2-1.2,0.1-1.2,0
		C1008.3,731.7,1008.3,729.2,1009.2,726.4z"/>
	<path class="st1" d="M1032.5,730.4c-0.3,1.7,0.5,4-1.2,4.1c-2.2,0.1-1.4-2.4-1.5-3.8c0-1.4-0.7-3.7,1.1-3.7
		C1033.5,726.8,1031.7,729.4,1032.5,730.4z"/>
	<path class="st1" d="M912.8,735.4c-0.5-0.8-0.9-1.2-0.9-1.7c-0.1-2.3-0.6-4.6,0.4-6.7c0.1-0.2,1.2-0.1,1.3,0
		C914.5,729.7,914.7,732.2,912.8,735.4z"/>
	<path class="st1" d="M788.7,726.7c1.9,2.6,1.3,5.3,0.3,8C786.9,732.1,787.5,729.4,788.7,726.7z"/>
	<path class="st1" d="M885.4,726.7c1.8,2.6,1.8,5.3,0.3,9C883.9,732.1,884.5,729.4,885.4,726.7z"/>
	<path class="st1" d="M982.5,726.7c1.7,2.6,1.6,5.3,0.3,8.8C980.8,732.1,981.4,729.4,982.5,726.7z"/>
	<path class="st1" d="M816.4,734.9c-0.7-0.3-1-0.4-1-0.5c-1-2.5-1-5,0.1-7.5c0-0.1,1.1,0.1,1.2,0.3
		C817.4,729.7,817.5,732.2,816.4,734.9z"/>
	<path class="st1" d="M1080.3,735.3c-1.1-0.8-1.3-0.8-1.3-1c-0.8-2.5-1-5.1,0.2-7.5c0.1-0.1,0.8-0.1,0.9,0
		C1081.3,729.5,1080.7,732.1,1080.3,735.3z"/>
	<path class="st1" d="M653.1,681.2c-0.1,0.1-0.2,0.2-0.3,0.2c0,0-0.2-0.1-0.2-0.2c0.1-0.1,0.1-0.2,0.2-0.3
		C652.9,681,653.1,681.2,653.1,681.2z"/>
	<path class="st1" d="M1710.8,677.1c-8.1-0.9-16.2-2.2-24.3-2.9c-11-0.9-21.8,2.1-32.8,2.6c-4.7,0.2-5.7,1.9-5.7,6.3
		c0.2,27.9-0.1,55.8,0.2,83.8c0.1,5.2-1.9,5.9-6.3,5.8c-4.1-0.1-6.1-0.5-6-5.5c0.3-31.6,0-63.1,0.2-94.7c0-4.4-1.1-5.5-5.5-5.5
		c-63.6,0.2-127.2,0.2-190.8,0c-5,0-5.9,1.5-5.9,6.2c0.2,31.6,0.1,63.1,0.1,94.7c0,0.3,0,0.6,0.1,0.9c0.2,0,0.4,0,0.6,0
		c0.7,0,1.3,0.1,1.9,0.3c0.1-1.4,0-3.2,0-5.5c-0.1-4.6,1.4-5.4,5.6-5.4c61.9,0.1,123.9,0.1,185.8,0c4.5,0,5.9,1.1,5.8,5.7
		c-0.3,11.1-0.1,10.9,11,11.2c4.8,0.2,6.1-1.3,6-6.1c-0.2-28.2-0.1-56.5-0.1-84.8c0-2.6-0.1-4.5,3.6-5c17.9-2.6,35.7-3.2,53.6,0
		c2.9,0.5,3.8,1.5,3.8,4.4c-0.1,13.5-0.1,26.9,0,40.4c0,1.7-0.5,3.5,1.4,5.8c0.5-1.4,0.8-2,0.8-2.6c0-15.6,0-31.2,0.1-46.9
		C1714,678,1713,677.3,1710.8,677.1z M1480,755.8c-3.8-0.3-7.7-0.3-11.5,0c-2.8,0.2-3.3-1-3.3-3.5c0.1-19.6,0.1-39.2,0-58.8
		c0-3.2,1.1-4,4.1-3.9c4,0.2,8,0.3,12,0c3.4-0.2,4.1,1.2,4.1,4.3c-0.2,9.6-0.1,19.3-0.1,28.9c0,9.3-0.2,18.6,0.1,27.9
		C1485.5,755,1484.1,756.1,1480,755.8z M1501.4,755.7c-4.2-0.5-9.8,1.8-12.5-0.9c-2.6-2.6-0.7-8.2-0.8-12.5c-0.1-6.5,0-12.9,0-19.4
		c0-9.8,0.1-19.6-0.1-29.4c0-2.8,0.4-4,3.7-4.1c14.4-0.3,14.4-0.5,14.4,13.9c0,15.8-0.1,31.5,0.1,47.3
		C1506.2,754.4,1505.6,756.3,1501.4,755.7z M1512.7,755.9c-3.2,0-3.9-1.1-3.8-4.1c0.2-9.8,0.1-19.6,0.1-29.4c0-9.5,0-18.9,0-28.4
		c0-2.5-0.5-4.9,3.6-4.8c3.6,0.1,4.4,1.2,4.4,4.6c-0.1,19.3-0.1,38.5,0,57.8C1516.9,755,1515.9,755.9,1512.7,755.9z M1537.8,755.8
		c-8,0.6-8,0.6-8-10.7c0-2.3,0-4.6,0-6.9c0-3.4,1.6-5.3,5.1-5.4c3.6-0.1,5.7,1.7,5.8,5.3c0.1,4.9,0,9.9,0.1,14.9
		C1540.8,755.1,1539.8,755.7,1537.8,755.8z M1546.8,755.8c-2.7,0-3.9-0.6-3.7-3.6c0.2-4.6,0.2-9.3,0.1-14c-0.1-5.1-3.3-8.3-8-8.3
		c-4.7,0-8,3.2-8.1,8.2c-0.1,4.8-0.2,9.6,0,14.5c0.2,3.5-2,3-4.2,3.1c-2.3,0.1-3.7-0.2-3.7-3.1c0.1-19.9,0.1-39.9,0-59.8
		c0-2.3,0.8-3.3,3.2-3.2c8.5,0.1,17,0.1,25.5,0c3.1-0.1,3,1.6,3,3.8c-0.1,9.8,0,19.6,0,29.4c0,9.8-0.2,19.6,0.1,29.4
		C1551.1,755.6,1549.5,755.7,1546.8,755.8z M1557.3,755.9c-3.3,0-3.8-1.3-3.8-4.1c0.1-19.4,0.1-38.8,0-58.2c0-3.3,1-4.2,4.2-4.3
		c3.3,0,3.8,1.4,3.8,4.2c-0.1,9.8,0,19.6,0,29.4c0,9.6-0.1,19.2,0,28.9C1561.6,755,1560.6,755.9,1557.3,755.9z M1582.1,722.6
		c0,9.5-0.2,18.9,0.1,28.4c0.1,3.6-0.6,5.3-4.6,4.7c-4.4-0.6-10.3,1.9-12.8-1.1c-2.2-2.5-0.7-8.2-0.7-12.5c0-15.9,0.1-31.9-0.1-47.8
		c0-3.4,0.4-5.4,4.5-4.8c4.4,0.6,10.1-1.9,12.9,1.1c2.5,2.7,0.7,8.2,0.7,12.5C1582.2,709.6,1582.1,716.1,1582.1,722.6z
		 M1601.2,755.7c-4.3-0.2-8.6-0.2-13,0c-2.7,0.1-3.4-0.8-3.3-3.4c0.1-9.8,0.1-19.6,0.1-29.4c0-9.8,0.2-19.6-0.1-29.4
		c-0.1-3.4,1-4.3,4.2-4.1c4.1,0.2,8.3,0.2,12.5,0c2.6-0.1,3.4,0.9,3.4,3.5c-0.1,19.7-0.1,39.5,0,59.2
		C1605,755.2,1603.9,755.9,1601.2,755.7z M1633.8,751.9c0,3.1-0.9,4-3.9,3.9c-6.3-0.2-12.6-0.1-19,0c-2.3,0-3.2-0.6-3.2-3.1
		c0.1-20.1,0.1-40.2,0-60.3c0-3.1,1.7-3,3.8-3c6.1,0,12.1,0,18.2,0c0-0.6,0-1.3-0.1-1.9h-189c0.5,2.4,2.1,1.9,3.2,1.9
		c5.2,0.1,10.3,0.1,15.5,0c2.5-0.1,3.6,0.6,3.5,3.4c-0.1,19.9-0.1,39.9,0,59.8c0,2.8-1.2,3.3-3.6,3.2c-6.3-0.1-12.7-0.2-19,0
		c-3,0.1-3.6-1.1-3.6-3.8c0.1-26.3,0.1-52.5,0-78.8c0-2.9,0.7-4,3.9-4c63.1,0.1,126.2,0.1,189.3,0c3,0,4,0.8,4,3.9
		C1633.7,699.4,1633.7,725.7,1633.8,751.9z"/>
	<path class="st1" d="M1554.7,661.9c-2-1.2-1.1-3.3-1.1-4.9c-0.1-16.9-0.2-33.9,0.1-50.8c0.1-4.1-1.3-5-5.1-4.9c-9,0.2-18,0.3-27,0
		c-4.2-0.2-4.8,1.4-4.8,5.1c0.2,16.8,0.1,33.6,0,50.3c0,1.7,0.5,3.6-0.9,5.3c-2.1-0.6-1.7-2.2-1.7-3.6c0-18.4,0-36.9-0.1-55.3
		c0-3.2,1-4.4,4.3-4.3c11.1,0.2,22.3,0.1,33.4,0c2.9,0,4.1,0.7,4.1,3.9c-0.1,18.6-0.1,37.2-0.1,55.8
		C1555.9,659.6,1556.5,661.1,1554.7,661.9z"/>
	<path class="st1" d="M1554.2,569.8c-0.4,1.4-1.4,1.1-2.4,0.8c-3.5-1.1-6.9-2.2-10.4-3.4c-2.6-0.9-2.1-3.2-2-5
		c0.2-3.2-0.3-5.7-4.2-5.7c-3.6,0-5,1.9-4.3,5.4c0.7,3.6-1,5.5-4.5,6.3c-2.7,0.6-5.4,1.7-8.1,2.5c-0.8,0.3-1.7,0.5-2.1-0.5
		c-0.4-1,0.3-1.5,1.2-1.8c1.1-0.4,2.2-0.9,3.3-1.1c5-1.1,9.1-2.8,7.7-9.3c-0.4-1.7,0.8-2.9,2.5-3.1c3.4-0.3,3.1-2.6,3.1-4.9
		c0-11.5,0-23.1,0-34.6c0-1.2-0.7-2.9,1-3.5c1.3-0.4,1.9,1.1,2.7,1.9c6.1,6.6,13.4,11.4,22.1,13.8c1.1,0.3,2.7,0.4,2.7,1.8
		c0,1.7-1.8,1.7-3,2c-6.1,1.6-12.4,2.5-18.7,2.3c-3.2-0.1-4.5,1-4.3,4.3c0.2,3.8,0.1,7.6,0,11.4c-0.1,2.8-0.1,5.3,3.7,5.8
		c2.4,0.3,2.2,2.4,1.9,3.9c-1,5,1.6,6.8,5.9,7.6c1.6,0.3,3.1,1.1,4.7,1.6C1553.3,568.6,1554,568.9,1554.2,569.8z M1536.4,516.6
		c0,4.9,0,8.5,0,12.1c0,1.8,0.6,2.8,2.6,2.7c5.4-0.4,10.9-0.4,17-2.1C1548.5,526.3,1542.7,522.3,1536.4,516.6z"/>
	<path class="st1" d="M1543.1,584c0,10,0,9.8-10.3,10.1c-4.7,0.2-6.4-1.3-5.7-5.8c0.1-1,0-2,0-3c0-11.8,1.6-13.1,13.6-11.2
		c2,0.3,2.4,1.3,2.4,3C1543,579.4,1543.1,581.7,1543.1,584z M1529.8,584.1c0,7.6,1.3,8.6,8.8,7.3c1.8-0.3,2.2-1.1,2.1-2.6
		c0-3.3,0-6.6,0-9.9c0-1-0.2-1.8-1.4-2.3c-5.4-2.1-9.5,0.4-9.5,6C1529.8,583.1,1529.8,583.6,1529.8,584.1z"/>
	<path class="st1" d="M1519.1,584.7c0-3.1,0-6.3,0-9.4c0-0.8,0.1-1.8,1.1-1.9c1.4-0.1,1.5,1,1.5,2c0,6.3,0,12.5,0,18.8
		c0,0.8-0.1,1.8-1.1,1.9c-1.4,0.2-1.5-1-1.5-2C1519.1,591,1519.1,587.8,1519.1,584.7z"/>
	<path class="st1" d="M1704.7,735.8c1.9-3.6,4.5-2.5,6.8-2.6c4.1-0.2,8.3,0,12.4,0c0.9,0,1.8,0.3,1.9,1.2c0.1,1-0.7,1.4-1.6,1.4
		C1717.8,735.8,1711.2,735.8,1704.7,735.8z"/>
	<path class="st1" d="M1548.7,596.2c0-7,0-14.1,0-21.1c0-0.8,0.1-1.8,1.3-1.6c0.3,0,0.9,0.6,0.9,0.9c0.1,7.3,0,14.5,0,21.8
		C1550.2,596.2,1549.5,596.2,1548.7,596.2z"/>
	<path class="st1" d="M614,597.5c-1.2-1-2.4-2.2-3.7-3.2c-4.1-3.1-7.4-9.4-11.8-9.1c-4,0.3-7.5,6-11.3,9.2c-2,1.7-3.8,4.8-6.8,1.1
		c-1.4-1.7-2.2,0-3,0.9c-0.8,0.9-1.4,1.9-2.2,2.7c-0.8,0.9-1.4,2.9-2.9,1.8c-1.4-1.1,0.3-2.3,1-3.3c1.2-1.8,2.6-3.4,3.9-5.1
		c1-1.3,2.2-1.7,3.3-0.3c2.3,3,4,1.5,5.9-0.4c1.3-1.3,2.6-2.6,4.1-3.6c5-3.6,8.5-7.8,7.1-14.5c-0.2-1-0.4-2.8,1-2.9
		c2.1-0.1,1.5,2,1.3,3c-2.2,11.2,8.1,13.9,13.5,20c0.7,0.8,1.4,0.4,2.1-0.2c1.2-0.9,2.4-3.4,4-1.7c2.4,2.4,4.3,5.5,6.3,8.3
		c0.1,0.1-0.3,1-0.7,1.1c-0.4,0.1-1,0-1.3-0.3c-0.7-0.7-1.3-1.5-1.9-2.3c-1.7-2-2.9-5.9-6.3-1.6C615.3,597.3,614.7,597.3,614,597.5z
		"/>
	<path class="st1" d="M598.5,607.6c-10,0-20,0-29.9,0c-4,0-7.7-1-9.4-5.2c-0.4-0.9-0.9-2.5,0.6-3c1.4-0.5,1.4,1,1.7,1.9
		c1.3,3.2,4.1,3.8,6.9,3.8c20.3,0.1,40.6,0.1,60.9,0c3.1,0,6-0.8,6.9-4.5c0.2-0.8,0.7-1.6,1.7-1.2c1,0.4,1,1.3,0.7,2.1
		c-1.3,4.6-5,6-9.2,6C619.2,607.7,608.9,607.6,598.5,607.6z"/>
	<path class="st1" d="M1524.5,623.4c0-6,4.8-10.6,10.9-10.5c5.7,0.1,10.4,4.8,10.5,10.5c0.1,5.7-4.9,10.8-10.7,10.8
		C1529.3,634.3,1524.5,629.4,1524.5,623.4z M1543.1,623.8c0.1-4.3-3.4-8.1-7.6-8.3c-4.3-0.2-8.4,3.7-8.4,8.1c0,4.2,3.6,7.9,7.9,7.9
		C1539.4,631.6,1543,628.1,1543.1,623.8z"/>
</g>
<g>
	<path class="st2" d="M1675.8,472.3c23.8,0,47.7,0,71.5,0c1.7-0.1,3.5-0.1,5.2-0.2c18.7,0,37.5,0.1,56.2,0.1c1.8-0.1,3.8,1.4,5.1-1
		l-0.1,0.1c1.7,2,4,0.9,6,0.9c28.8,0.1,57.5,0.1,86.3,0.1c1.5,0,3,0,4.5,0c1.5,0.1,3.3,0,3.2,2.1c-0.1,1.6-1.5,1.9-2.8,1.9
		c-1.3,0-2.6,0-3.8,0c-315.9,0-631.9,0-947.8,0c-1.1,0-2.1,0-3.2,0c-1.6-0.1-3.8,0.3-3.7-2.2c0.1-2.1,2.1-1.7,3.5-1.7
		c1.1-0.1,2.1,0.1,3.2-0.1c2-0.3,5.1,1.1,5.8-0.8c1.1-2.7-2-4.4-3.8-5.9c-4.9-4.1-10.8-5.8-17.1-6c-4-0.1-6.3-0.7-5-6
		c1.9-7.4-3-14.6-10.9-17.8c-1.8-0.7-5-0.6-3.8-3.7c0.9-2.3,3.5-0.7,5.1-0.1c8.2,2.6,13.9,9.7,13.9,18.4c0,4.4,1.6,5.1,5.4,5.7
		c8.9,1.4,16.7,5.3,21,13.8c1.1,2.1,2.5,2.5,4.5,2.5c4.7-0.1,9.4-0.1,14.1-0.2c1.3,0,2.6,0,3.9,0c1.3,0,2.5,0,3.8,0
		c2.6,0,5.2,0,7.7,0c3.4,0,6.8,0,10.2,0c2.1,0,4.3,0,6.4-0.1c14.5,0,28.9,0,43.4,0.1c15.4,0,30.7,0,46.1,0c51.5,0,103.1,0,154.6,0
		c3.4,0,6.8,0,10.2,0c19.6,0,39.2,0,58.8,0c1.7,0,3.5,0,5.2,0c27.5,0.1,54.9,0.1,82.4,0.1c2.2,0,5.3,1.1,3.8-3.7
		c-0.9-3.1,2.9-3.2,4.9-3.5c8.4-1.1,16.9-1.8,25.4-2.7c1.5-0.2,3.7,0.8,4.1-1.8c0.3-1.9,0-3.4-1.8-5c-12.2-10.6-14.9-31-6.1-44.5
		c6.6-10,17.1-10.1,23.9-0.2c3.6,5.4,4.4,11.7,5.7,18.8c3.4-6.1,7.3-10.4,13.4-12c8.5-2.2,17.6,1.8,21.5,9.7
		c4.2,8.3,2,18.5-5.1,24.2c-1.2,0.9-2.6,1.5-3.7,2.4c-1.8,1.5-1.1,3.5-0.8,5.3c0.3,2.2,2.2,1.5,3.6,1.5c5.5,0,11.1,0,16.6-0.1
		c1.8,0,4.3,0.6,4.5-2.2c0.2-2.7,1.9-6.2-1.7-8c-11.5-5.8-10.8-15.8-8.6-25.9c2.2-10.3,7.4-19.4,12.6-28.4c1.4-2.5,2.2-2.6,3.8,0
		c6.3,10.4,12.3,20.9,15.5,32.7c3.5,12.7,1.1,17.9-10.9,22.7c-3.8,1.5-2,4.1-2.3,6.3c-0.3,2.8,1.9,2.7,3.9,2.7
		c16.6,0.1,33.2,0.1,49.8,0.3c6.4,0.1,3.4-4.5,3.8-7.2c0.4-2.8,0.9-5.8-4.1-5.7c-8,0.2-8.2-0.3-6.2-8.3c3.8-15.2,7.8-30.4,11.8-45.6
		c0.4-1.5,0.8-3.1,2.6-3.1c1.8,0.1,2.1,1.9,2.4,3.3c3.4,15.8,6.8,31.5,10.2,47.3c0.9,4.1,1.1,7.3-4.7,6.5c-5.6-0.8-4.1,3.4-4,6.2
		c0.1,2.9-1.8,6.7,4.3,6.9c19.1,0.5,38.3,0.9,57.3,3.7c3.4,0.5,9.1-1.8,9.9,4.9c-7.7-0.7-15.4-1.5-23-2.2
		c-48.2-3.8-96.6-3.1-144.9-2.8c-25.5,0.1-50.9,0.2-76.2,4c-1.5-0.1-3.2,0-3.3,1.8c-0.1,1.6,1.4,1.6,2.7,1.5
		c13.4,0.1,26.8,0.2,40.2,0.2c60.5,0,121-0.1,181.4-0.2C1660.4,472.2,1668.1,472.3,1675.8,472.3z M1476.1,430.5
		c-0.6-6.8-1.3-13.8-6.4-19.3c-4.4-4.7-8.7-4.7-13.2-0.3c-8.4,8.3-8.5,30.5-0.2,39c4.7,4.8,8.8,4.7,13.5-0.2
		C1474.9,444.3,1475,437.4,1476.1,430.5z M1534.5,401.2c-5.8,11.4-12,21.7-11.2,34.2c0.6,9.1,6.9,13.8,16.1,12.4
		c8.1-1.2,11.4-6.3,9.2-15.4C1546.1,421.6,1541.2,411.8,1534.5,401.2z M1484.1,436.2c0,9,6.9,16,15.7,15.8
		c7.2-0.2,13.6-7.7,13.6-15.8c0-8.3-6.2-14.7-14.3-14.9C1490.7,421.1,1484.1,427.7,1484.1,436.2z M1600.6,405.1
		c-4.6,13.2-9,25.7-11.4,39.2c6.7,0,13.1,0,20.1,0C1606.4,430.9,1603.5,418,1600.6,405.1z M1479.5,436.7
		c-1.2,7.9-3.8,14.6-10.7,18.9c-1.8,1.1-2,2.7-1.7,4.4c0.4,2.6,2.5,1.8,4,1.8c7.7-0.2,15.3-0.4,23-0.7c1.5-0.1,3.6,0.8,3.7-2.1
		c0.1-2-0.8-3.2-2.7-3.6C1485.3,452.9,1480.7,446.2,1479.5,436.7z"/>
	<path class="st2" d="M483.6,333.9c8.2-5,17.1-8.1,25.8-5.4c14.1,4.3,27.8,10.2,41.5,15.6c2.8,1.1,5.4,3.7,6,6.4
		c2,8.3,9.5,8.7,15.2,11.8c2.1,1.1,3.8,0.7,4.5-2.4c3.2-13.8,12-21.3,26.1-23c3-0.3,5.6-2.8,8.5-4.1c18.6-7.9,38.9,5.2,39.7,21.4
		c0.2,3.1,1.7,4.7,4.7,5.9c6,2.4,11.7,5.4,15.1,11.2c1.9,3.3,3.6,2.7,6.6,1.3c17.3-8.6,41.4-0.5,48.8,15.9c1.3,3-0.2,7.8,3.5,8.8
		c3,0.8,4.3-3.8,7.2-5.3c22.6-11.4,42.6,2.6,48.1,24.5c0.9,3.7,1.3,7.5,0.3,11.4c-0.4,1.6,0,4-2.4,3.8c-2.9-0.3-1.6-2.9-1.6-4.5
		c-0.1-3,0.2-6-0.1-8.9c-1.7-13.8-19.1-31.3-36.8-24.9c-4,1.4-6.6,4.4-9.6,6.8c-2.9,2.3-6,2.5-8.9,1.6c-2.9-0.9-1.7-4-2-6.2
		c-0.9-6.4-4-11.6-8.9-15.7c-8.3-6.8-29.1-8.1-38.1-2.1c-3.6,2.4-5.4,2.8-7.6-1.7c-3.3-6.9-9.7-10.7-16.7-12.8
		c-3.2-1-4.3-2.4-4.9-5.5c-4.1-21.7-21-29.3-40.1-18.1c-1.3,0.8-2.6,1.3-4.1,1.5c-13.3,1.8-19.2,7-22.6,19.7
		c-1.5,5.8-4.9,7.5-10.4,5.2c-7.5-3.1-14.4-6-18.1-14.7c-2.8-6.7-10.8-8.8-18.1-8.5c-3.9,0.1-6.3-1.4-9-3.5
		c-11.5-9.2-26.2-9.9-38.6-2.1c-5.8,3.6-6.1,3.4-7-3.3c-1.7-13.6-13.3-27.5-25.8-29.8c-18-3.3-26.8,3.8-33.8,21.2
		c-1.6,4.1-2.1,5.9-7.2,4.7c-12.3-3-23.7-0.8-33,8.5c-3.4,3.4-5.6,3.3-8.3-1c-3.1-5-6.5-9.9-11.4-13.5c-14.7-10.9-34.8-8.3-46,6.3
		c-1.2,1.5-2.5,2.9-3.5,4.6c-2.1,3.5-4.5,4.4-8.4,2.3c-6.7-3.5-13.8-4.1-20.9-0.9c-2.3,1-4.1,0.3-6.1-0.5
		c-12.7-4.7-23.9-1.9-33.7,6.9c-2.8,2.5-5.1,3.5-9,2.2c-6.6-2.2-13.4-2.7-19.7,1.2c-2.3,1.4-4.5,1-6.6-0.2
		c-7.1-3.7-14.6-4.5-22.3-2.5c-3.1,0.8-4.9-0.1-6.4-3.2c-8.5-16.8-28.4-20-41.2-6.2c-4.6,4.9-6.9,4.9-12.1,1
		c-10-7.5-21.6-6.9-33-3.2c-3.6,1.2-6.7,0.5-10.3,0.2c-9.7-0.7-17.3-5.3-25.6-9.7c-13.5-7.2-30.7,2.7-34.2,18.5
		c-1,4.3-2,6.8-6.7,5.6c-3.3-0.8-8.7,3.6-9.4-0.8c-0.6-3.7,5.6-3,9-3.1c3.4-0.1,2.8-2.7,3.5-4.4c4.5-12.5,12.8-20.3,26.3-21.9
		c8.1-1,15.1,1.6,21.1,6.9c2.5,2.2,5.3,2.4,8.3,3.3c10.5,3.2,20.4-0.3,30.6-1.2c8.3-0.7,16.1,1.5,22.9,6.3c2.9,2.1,4.4,1.6,6.8-0.8
		c14.8-15.2,38.3-11.3,47,5.9c1,2,2.1,2.7,4.5,2.3c7.5-1.4,14.9-0.9,21.8,2.6c1.8,0.9,3.6,1.2,5.5,0.1c6.6-3.7,13.6-3,20.5-1.2
		c2.8,0.7,4.6,0.2,6.8-1.7c10.5-9,22.4-11.7,35.7-7.5c2.3,0.7,4.4,1.1,6.7,0.2c6.5-2.5,13.1-2,19.2,0.8c4.2,1.9,6,0.5,8.2-2.7
		c9.6-13.6,22.7-18.5,39-15.5c10.8,2,18.3,8.7,24,17.6c2.6,4,4.2,4.2,8,1c8.6-7.3,18.9-9.4,29.9-7.3c3.5,0.6,5,0.1,6.4-3.5
		c9.8-25.6,33-28.2,51.1-15.8C476.4,312.1,481.9,321.9,483.6,333.9z"/>
	<path class="st2" d="M851.9,356.5c5.2-0.1,10.1,1.1,14.8,3.5c3.6,1.8,5.3,2.5,6.6-2.9c5.8-24.4,29.3-35.4,52.1-25.2
		c4.9,2.2,8.4,8.7,12.7,8.4c4.1-0.2,8.1-6.4,13.2-6.8c9.4-0.7,17.7-4.7,26.4-7.6c8.8-3,17.8-1.6,26,2.8c2.5,1.4,4.1,1.6,6.8-0.1
		c5.7-3.6,12.1-5.4,18.9-4.2c3,0.5,5.3,0,7.6-2.1c5.1-4.5,11.3-6.7,18.1-7.1c3.3-0.2,4.7-1.2,5.3-4.6c2.2-11.6,9.7-19,20.8-21.6
		c12.4-2.9,23.3,0.6,30.8,11.4c2.3,3.4,3.5,4.2,7.5,1.8c14.1-8.2,28.1-7.1,41.3,2.3c5.5,3.9,8.5,9.9,11.3,15.8
		c1.5,3,2.2,4.6,6.3,2.9c20.3-8.1,38.2,2.8,41.1,24.8c0.2,1.5-0.1,3.3,2.1,3.1c2.7-0.2,4.2,1.5,6.2,2.7c6.3,3.6,12.3,7.5,19.9,2
		c2.7-2,7.2-2.4,10.5-1.2c9,3.3,17.8,1.1,26.7,0.5c1.5-0.1,2.7-0.1,4-1.3c16-16.3,38-12.8,47.3,8c2.8,6.3,5.3,10,13,10.6
		c8.7,0.7,15.9,5.8,21.5,12.5c2,2.4,4,3.9,7.5,3.3c22.8-4,40.2,23.5,30.6,42.6c-1.6,3.2-0.4,3.8,2.1,5.6c5.4,3.9,11,7.8,14.7,13.6
		c0.9,1.4,2.2,3.2,0.3,4.4c-1.5,1-2.6-0.6-3.4-2c-4.5-6.8-11.5-10.5-18.3-14.2c-3.1-1.7-2.9-2.8-1.3-5.2c6-9.3,6.6-18.9,0.3-28.1
		c-6.5-9.5-15.1-15.5-27.4-12.3c-2.9,0.8-4.2-0.3-5.8-2.4c-7.6-9.8-17.5-15.4-30.2-14.8c-3.6,0.2-4-1.7-4.6-4.4
		c-2.7-11.5-9.3-19.7-21.1-22.9c-8.6-2.3-15.8,0.8-21.3,7.6c-2.3,2.9-5.2,3-8.6,3.7c-9.9,1.8-19.3,1-29-0.6c-4.7-0.8-9.3,1.2-13,4.3
		c-2.4,2-4.2,1.9-6.6-0.1c-4.7-3.9-10.1-6.4-16.3-6.6c-3.4-0.1-4.3-1.8-4-5c1-10.1-3-18-11.6-23c-9-5.3-18.4-5.3-27.1,0.7
		c-4.2,2.9-4.9,1.5-6.3-2.5c-6.3-17.8-18.9-26.9-35-25.3c-7,0.7-13.7,2.5-18.3,8.7c-1.9,2.5-3.9,3.1-5.2-1.1
		c-3.2-9.9-10.3-15.2-20.6-16.5c-10.4-1.3-18.1,3-24,11.3c-2.2,3.1-2.8,6.7-3.1,10.2c-0.4,3.7-1.6,5.4-5.5,5.2
		c-8.1-0.4-15,2.6-21,7.8c-1.8,1.5-3.3,2.8-6.2,2c-7.5-2.1-14.4-0.1-20.4,4.5c-2.4,1.8-4,2-6.7,0.4c-12.3-7.3-24.6-7.1-36.4,1.4
		c-1.6,1.2-3.2,1.8-5.3,1.5c-8.5-1.5-15.6,1.6-21.2,7.8c-2.8,3.1-4.1,3-6.8-0.1c-15.1-17.5-40.2-16.1-52.8,2.9
		c-3.5,5.2-4.7,11.3-5.5,17.4c-0.5,4-1.8,4.5-5.3,2.4c-15.5-9.3-27.6-8.6-41.7,2.5c-2,1.5-3.7,2.4-6.3,2.3
		c-10.6-0.5-18.3,4.3-23.3,13.7c-0.9,1.6-13.7,8.8-15.3,8.5c-1.4-0.3-2.4-1.2-1.5-2.7c0.5-0.9,1.5-1.8,2.4-2
		c7.8-1.7,11.9-7.6,16.6-13.4c4.4-5.5,11-7.9,18.1-8.1c3.6-0.1,6.4-1,9.2-3.3C835.7,358.7,842.7,356.6,851.9,356.5z"/>
	<path class="st2" d="M1507,297.7c6.5,3.5,13.8,2.4,20.7,3.7c5.8,1.1,11.8,1.5,17.7,2.3c1.7,0.2,4.6-0.2,4.2,2.6
		c-0.4,2.7-3.1,1.6-4.8,1.4c-18.2-2.2-36.3-4.4-54.5-6.6c-29.8-3.6-59.5-7.4-89.3-10.9c-15.8-1.8-30.3-8-45.6-11.7
		c-16.7-4-33.6-7.5-50.2-11.8c-13.5-3.5-26.9-4.9-40.7-5.1c-7.6-0.1-13.6,3.7-20.1,6.5c-10.5,4.4-21.3,8.2-33.7,13
		c11.4,5.5,21.3,10.1,31,15c2.1,1,6.5,1.5,5.2,4.3c-1.6,3.7-4.8,0.2-6.9-0.8c-21.5-10.1-43.4-19.7-64.3-30.9
		c-17.3-9.3-35.3-17.2-52.8-26.3c-4.2-2.2-7.6-2-11.8,0.1c-14.4,7.3-29.5,13.3-43.4,21.4c-17.3,10-35.6,17.7-53.2,26.9
		c-1.1,0.6-2.3,1.2-3.4,1.7c-1.5,0.7-3.4,1.8-4.3-0.5c-0.8-1.8,1.1-2.5,2.4-3.1c4.9-2.5,9.9-4.8,14.9-7.2
		c29.3-14.2,57.9-30.1,87.4-43.9c4-1.9,7.2-2,11.3,0c17.7,8.7,35.9,16.6,53.3,25.9c9.5,5.1,19.1,9.8,28.6,14.8c2,1,4.1,2.5,5.4-0.9
		c0.2-0.6,1.4-0.9,2.2-1.2c10.1-4.1,20.4-7.8,30.3-12.8c17.4-8.8,35.7-6.3,53.8-3.2c30.5,5.3,60,14.6,89.8,22.9
		c14.9,4.2,30.2,4.6,45.4,6.7c23.8,3.3,47.7,5.9,71.6,8.8C1504.3,298.6,1505.9,299.4,1507,297.7L1507,297.7z"/>
	<path class="st2" d="M170,317.2c7.6-7,10.4-7.1,17.7-1.1c1,0.8,1.3,1.6,2.9,0.4c8.9-6.7,11.2-6.5,18.3,1.5
		c6.4-8.4,12.2-8.5,18.9-0.2c7.9-8.2,13.1-8.2,19.4,0.1c7.7-7.9,9.2-8.1,18.4-1.3c2.3,1.7,2.4-0.3,3.3-1.1c5.8-5.2,9.9-5.4,15.4,0.2
		c2,2,2.4,1.8,4.1-0.2c3.4-4.1,7.9-5,12.6-2.3c5.3,3,5.3,8.3,4.9,13.5c-0.1,1.1-0.5,2.2-1.7,2.3c-1.6,0.1-2.1-1.2-2.3-2.5
		c-0.1-1.5-0.1-3-0.1-4.5c0-3.5-2-5.8-5.3-6.1c-3.7-0.3-5.9,2.1-6.3,5.8c-0.3,2.2,0.6,4.5-3.3,4.8c-3.1,0.2-4.5,0-4.4-3.2
		c0.1-4.2-1.6-7.4-6-7.3c-3.9,0.1-5.9,3-5.6,7c0.1,2-0.6,3.5-2.9,3c-1.8-0.4-4.7,0.8-4.7-2.7c0-4.2-1.8-7.4-6.2-7.2
		c-5.1,0.2-5.8,4.2-5.5,8.4c0.4,4.5-3.4,5-5.8,5.1c-3.1,0.1-1.8-3.2-1.8-5.1c-0.1-4.5-1.1-8.6-6.4-8.4c-5.1,0.2-5.6,4.3-5.5,8.4
		c0.1,2.8,0.1,5.5,0,8.3c-0.1,2.1-0.4,3.7-3.4,3.2c-2.2-0.4-4.3-0.2-4.3-3.3c0-3.4,0.1-6.8-0.1-10.2c-0.2-3.5-1.6-6.4-5.5-6.6
		c-4.2-0.1-6,2.8-6.2,6.6c-0.2,3.8,0,7.7-0.1,11.5c0,1.8,0.4,4.4-2.6,3.9c-2.2-0.3-5.3,0-5.1-4c0.2-3.8,0-7.7,0-11.5
		c0-3.7-1.7-6.4-5.5-6.5c-4.1-0.1-6.1,2.6-6.2,6.6c-0.1,2.8-0.2,5.5,0,8.3c0.3,3.3-1.5,3.7-4.2,3.9c-3.3,0.2-3.5-1.6-3.5-3.9
		c0-3,0-6,0-8.9c0-2.9-1.4-4.9-4.1-5.8c-2.9-0.9-4.9,0.4-6.5,2.7c-0.9,1.2-1.9,4.4-3.1,2.8c-1.9-2.4-7.7-0.2-6.6-5.6
		c0-0.2,0-0.4,0-0.6c0.1-12.7-0.8-10.5,9.9-10.5c50.9-0.1,101.8,0,152.7,0c1.3,0,2.6,0,3.8,0c1.5,0,2.7,0.5,2.5,2.1
		c-0.2,1.3-0.2,3.1-2.3,3.2c-1.7,0-3.4,0.1-5.1,0.1c-50.5,0-100.9,0.1-151.4-0.1C170.1,310.3,167.7,311.4,170,317.2z"/>
	<path class="st2" d="M241.4,258.3c3.9,6.7,3.2,13.5,1.6,20.3c-1,4.3,1.4,8.2,1.3,12.6c-0.2,5.1-1.7,6.5-6.7,6.4
		c-16.8-0.3-33.6-0.1-50.4-0.1c-1.4,0-3.2-1-4.2,0.4c-0.9,1.3-0.7,3.9-3,3.1c-2.4-0.8-1.3-3.3-1.3-5.1c-0.1-12.3,0.2-24.6-0.2-37
		c-0.1-5,1.8-6,6.3-6c18.7,0.2,37.4,0,56.2,0.2c2.3,0,6.1-1.5,6.6,1.8C248,259,243.4,256.3,241.4,258.3z M186.7,269.2
		c0.4,2.1-1.9,6.2,4.2,6.2c4.7-0.1,4.4-2.7,4.3-5.8c-0.1-3.5,1-8.1-4.4-8.2C186.4,261.2,186.4,265,186.7,269.2z M231.5,268.9
		c0.3,2.5-1.5,6.2,4,6.4c5.2,0.1,4.6-2.9,4.5-6.1c-0.1-3.2,1-7.5-4-7.8C231,261.2,231.6,265.4,231.5,268.9z M240,288.7
		c0.2-3.4-0.2-6.4-4.4-6.2c-4.2,0.2-3.9,3.4-4.1,6.4c-0.3,3.5,0.9,4.8,4.6,4.8C240.2,293.7,240.3,291.4,240,288.7z M224.8,269.6
		c-0.4-3.2,1.6-8-4.2-8c-4.4,0-4,3.8-3.7,6.7c0.3,2.6-2.2,6.7,3.6,7C225.2,275.4,225.1,272.8,224.8,269.6z M209.8,269
		c-0.4-3,1.3-7.5-4.1-7.5c-4.9,0-3.9,4.2-3.8,7.2c0.1,2.7-1.7,6.6,4,6.5C211.1,275.1,209.5,271.8,209.8,269z M186.6,288.5
		c-0.2,2.7-0.4,5.3,3.9,5.2c3.6-0.1,4.9-1.3,4.7-4.8c-0.2-3.1,0-6.2-4.1-6.5C186.9,282.3,186.4,285.1,186.6,288.5z M216.7,287.7
		c0.1,2.9-0.8,6,4.1,6c3.5-0.1,4.4-1.4,4.1-4.5c-0.2-2.8,0.8-6.3-3.7-6.7C217.5,282.2,216.6,284.6,216.7,287.7z M209.9,289.8
		c-0.1-3.5,0.8-7.2-4.1-7.3c-3.3-0.1-4.3,2.2-4,5.1c0.3,2.6-1.5,6.3,3.7,6.1C208.6,293.6,210.4,292.9,209.9,289.8z"/>
	<path class="st2" d="M312.4,258c-1.7-0.3-2.5-0.4-3.3-0.6c-1.4-0.3-3.4,0.3-3.5-1.8c-0.1-2.5,2.1-2.3,3.7-2.3
		c20.4,0,40.8,0,61.3-0.1c2.9,0,4.3,1,4.3,4.1c-0.1,13.6,0,27.2-0.1,40.8c0,1.2,0.1,2.8-1.5,3.2c-1.6,0.4-2.2-0.8-2.6-2.1
		c-0.8-3.1-3.2-1.4-4.7-1.4c-16.8-0.1-33.6-0.3-50.4,0c-5.2,0.1-7.1-1.7-6.3-6.6c1.3-7.7,0.5-15.3-0.1-22.9
		C309,264.6,309.8,261.4,312.4,258z M358.2,269.1c0.4,2.5-1.3,6.1,4.2,6.2c4.6,0.1,4.7-2.3,4.4-5.5c-0.3-3.3,1.4-8.1-4-8.4
		C357.7,261.1,358.3,265.4,358.2,269.1z M321.8,269.9c0-4,0.8-8.4-4.5-8.5c-4.4,0-4.3,3.9-4.1,7.1c0.2,3-1.5,7,4.4,6.8
		C322.4,275.2,321.9,272.4,321.8,269.9z M336.4,268.4c-0.4-2.4,1.3-6.7-3.6-6.9c-5.2-0.2-4.5,4.1-4.3,7.4c0.2,2.5-1.8,6.1,3.6,6.3
		C337.4,275.4,336.4,272,336.4,268.4z M351.5,268.9c-0.1-3.4,0.8-7.4-4-7.4c-5.3,0.1-3.9,4.6-3.9,7.7c-0.1,2.8-1.1,6,3.9,6
		C353.3,275.3,351,271.3,351.5,268.9z M366.7,288.8c0.2-3.4,0-6.4-4.2-6.3c-4.2,0-4.2,3.2-4.3,6.2c-0.2,3.3,0.6,5,4.5,5
		C366.7,293.8,367.1,291.7,366.7,288.8z M313.3,289c-0.5,2.5-0.1,4.7,4,4.7c3.7,0,4.8-1.4,4.6-4.8c-0.2-3.1-0.1-6.2-4.2-6.4
		C313.6,282.3,313.1,285.2,313.3,289z M336.5,288.9c0.1-3.3,0.2-6.5-4.2-6.4c-3.9,0.1-4.1,2.8-4,5.8c0.1,2.7-0.7,5.5,3.9,5.4
		C336.1,293.7,336.9,292,336.5,288.9z M351.5,288.9c0.1-3.3,0.3-6.5-4.1-6.5c-3.9,0-4.1,2.8-4,5.8c0.1,2.6-0.8,5.5,3.8,5.5
		C351.2,293.7,352,292,351.5,288.9z M321.9,257.3c3.2,4.1,3.2,4.1,5.8,0C325.8,257.3,323.9,257.3,321.9,257.3z"/>
	<path class="st2" d="M276.7,253.2c6.6,0,13.2,0.1,19.8-0.1c3.6-0.1,5.4,0.8,5.3,5c-0.2,12.9-0.1,25.9-0.1,38.8c0,1.4,0.5,3.3-1.1,4
		c-1.9,0.9-2.5-0.7-3-2.1c-0.9-2.2-2.9-1.2-4.4-1.2c-11-0.1-22.1-0.1-33.1,0c-1.4,0-3.2-0.6-4.2,0.7c-0.9,1.2-0.7,3.9-3.2,2.6
		c-1.8-0.9-1.1-3-1.1-4.7c-0.1-12.5,0.1-25-0.1-37.5c-0.1-4.2,1.3-5.7,5.4-5.5C263.5,253.4,270.1,253.2,276.7,253.2z M295.9,269.3
		c-0.5-3.2,1.1-8-4.5-8c-4.5,0.1-4.3,4-3.9,7.2c0.3,2.5-2.2,6.6,3.6,6.8C296,275.4,296.2,272.9,295.9,269.3z M280.8,267.2
		c-0.1-1.4,1-5.7-4.1-5.8c-5-0.1-4.5,4.1-4.4,7.4c0.1,2.9-1.2,6.4,4.2,6.4C281.8,275.3,281,272.2,280.8,267.2z M280.9,289
		c0.1-3.5,0-6.6-4.3-6.5c-4.1,0.1-4.2,3.1-4.4,6.2c-0.1,3.3,0.4,5,4.4,5C280.6,293.7,281.3,291.9,280.9,289z M265.7,269.6
		c-0.4-3.2,1.6-8-4.3-8.1c-4.4,0-3.9,3.8-3.6,6.7c0.3,2.6-2.2,6.7,3.6,7C266.1,275.4,266,272.8,265.7,269.6z M287.5,288.8
		c-0.3,2.5-0.5,4.9,3.8,4.9c3.7,0,4.8-1.4,4.6-4.8c-0.2-3,0.1-6.3-4.1-6.4C287.7,282.3,287.2,285.2,287.5,288.8z M265.8,288.5
		c0.2-3.1,0-6-3.9-6c-4.4-0.1-4.1,3.2-4.3,6.2c-0.2,3.2,0.5,5,4.4,5.1C266.5,293.8,265.8,291,265.8,288.5z"/>
	<path class="st2" d="M734,255c-1.2,3.1-3.1,1.3-4.6,0.5c-10.5-5.1-20.9-10.5-31.5-15.4c-12.1-5.6-24.7-10.3-36.6-16.5
		c-18.5-9.7-38.3-15.6-58.4-20.6c-5-1.2-9.1-0.2-13.5,1.7c-21,9.2-39.7,22.7-59.7,33.6c-14,7.6-28.1,15.3-41.3,24.1
		c-12.2,8.1-24.8,15.4-37.2,22.9c-1.6,1-3.8,3.7-5.4,1.2c-1.9-3,1.9-3.6,3.6-4.7c31.2-19.6,63.1-38.2,94.9-56.9
		c14.2-8.3,28.6-16.3,43.3-23.8c5.3-2.7,10.5-3.4,16.6-2c21.5,4.7,42.3,11.8,61.9,21.3c21.1,10.3,42.8,19.3,63.4,30.7
		C731.2,252,733.6,252.3,734,255z"/>
	<path class="st2" d="M779.4,237.8c8.9,0.8,17.6,3,26.1,5.5c20.6,5.9,41.3,11.9,61.1,20.1c20.5,8.5,41.7,15.3,62.3,23.6
		c1.7,0.7,4.4,0.8,3.8,3.4c-0.6,2.2-2.9,1.3-4.4,0.7c-22.2-8-44.6-15.3-66.4-24.3c-25.2-10.3-50.9-18.4-77.4-24.3
		c-4.4-1-8.3-0.3-12.3,1.7c-12.5,6.4-25.5,11.8-37.5,19c-11.3,6.7-23.1,12.3-34.7,18.4c-1.7,0.9-4.1,3.1-5.3,0.1
		c-0.9-2.3,2-2.8,3.5-3.6c24.3-12.9,48.3-26.4,73.3-38C774.1,239,776.4,237.5,779.4,237.8z"/>
	<path class="st2" d="M1752.4,323.2c7.7,1.1,14.9-1.8,22.2-3.3c7.2-1.4,13.9-1.5,21.2,0.5c37.4,10.4,75.8,15.5,114.2,20.5
		c1.1,0.1,2.1,0.1,3.2,0.3c1.5,0.2,3.2,0.7,2.7,2.7c-0.4,1.6-1.9,1.5-3.2,1.3c-9.1-1.1-18.2-2-27.2-3.3
		c-32.8-4.8-65.6-9.9-97.5-19.2c-5.8-1.7-11.3,1.2-16.9,2.2c-20.5,3.8-40.9,8-61.3,12.1c-1,0.2-2.1,0.3-3.2,0.5
		c-1.4,0.2-3.3,0.8-3.8-1.1c-0.7-2.4,1.6-2.6,3.2-2.9c13.3-2.6,26.7-5.2,40-7.8C1748.3,325.2,1751,325.7,1752.4,323.2L1752.4,323.2z
		"/>
	<path class="st2" d="M1507,297.8c-0.4-3.2,0.8-4.7,4.2-5.3c26.7-5,53.4-10.1,80.1-15.3c2.8-0.5,5.2-0.4,7.9,1
		c17.3,9,34.8,17.8,52.1,26.7c5.2,2.7,10.2,5.7,15.3,8.6c1.1,0.6,2.4,1.4,1.8,2.9c-0.8,1.9-2.2,1.4-3.7,0.7
		c-6.9-3.1-13.3-7.2-19.9-10.8c-15.1-8.2-30.6-15.7-45.9-23.6c-2.3-1.2-4.5-2.1-7.2-1.6C1563.5,286.7,1535.2,292.2,1507,297.8
		C1507,297.7,1507,297.8,1507,297.8z"/>
	<path class="st2" d="M255.9,194.3c0,3.6,0,7,0,10.4c0,1.3-0.3,2.7-2,2.7c-1.6,0-1.8-1.2-2.1-2.6c-0.5-2.5,1.5-7.1-1.6-7.1
		c-4.1,0-1.6,4.6-2.2,7.2c-0.4,1.7-0.9,2.8-2.7,2.8c-2.1,0-2.8-1.1-3.1-3.1c-0.4-2.5,1.6-7-1.8-7c-3.4,0-1.5,4.4-1.8,6.9
		c-0.3,2-1,3.2-3.1,3.2c-2.2,0.1-3-1.1-3-3.2c0-0.8,0.1-1.7,0-2.5c-0.2-1.7,0.9-4.6-1.8-4.7c-2.8-0.1-1.7,2.8-2,4.5
		c-0.4,2.2,1.4,5.7-2.8,5.8c-4.1,0.1-2.9-3.3-3.1-5.6c-0.2-1.7,0.7-4.6-1.9-4.6c-2.5,0-1.7,2.8-2,4.6c-0.1,0.8,0.1,1.7,0,2.5
		c-0.1,1.3-0.2,2.8-1.8,2.8c-2.1,0.1-2.3-1.6-2.3-3.1c0-2.3,0.2-4.6,0.3-7c0.1-1.2,1.8-2.9-1.1-3.1c-2.2-0.2-2.3,1.3-2.3,2.9
		c0,2.3,0.1,4.7,0,7c0,1.5-0.1,3.3-2.1,3.4c-2.1,0.1-2.1-1.8-2.1-3.2c-0.1-3.2,0.2-6.4-0.1-9.6c-0.3-3.7,1.3-4.8,4.8-4.8
		c16,0.1,31.9,0,47.9,0.1c1.7,0,4.5-0.8,4.3,2.2c-0.1,2.2-2.5,1.7-4.1,1.9C258.7,194.2,257,194.3,255.9,194.3z"/>
	<path class="st2" d="M208.6,216.1c-2.7,3.2-1.7,6.4-2,9.5c-0.1,1.5,0,3.3-2,3.4c-2.1,0.1-2.1-1.7-2.2-3.1c0-0.4,0-0.8,0-1.3
		c0.1-16.5-1.5-13.2,12.8-13.4c12.7-0.2,25.5-0.1,38.2,0c1.8,0,4.4-0.7,4.9,1.7c0.5,2.4-1.8,2.3-3.5,2.5c-1.7,0.2-1.9,1.3-1.8,2.7
		c0.1,1.7,0.2,3.4,0,5.1c-0.3,2.1,1.4,5.7-1.9,5.8c-3.4,0.1-1.7-3.6-2.1-5.6c-0.2-1-0.1-2.1,0-3.2c0.1-1.6-0.3-3.2-2.1-3.4
		c-2.3-0.2-2.6,1.6-2.6,3.5c0,1.9-0.1,3.8,0,5.7c0.1,2-0.6,3.3-2.8,3.4c-2.1,0-3.1-1-3.1-3.1c0-2.3,0-4.7-0.1-7
		c0-1.5-0.9-2.5-2.3-2.5c-1.4,0-2.2,1-2.2,2.5c0,2.1,0,4.2,0,6.4c0.1,2.2-0.4,3.8-3.1,3.7c-2.6-0.1-3.1-1.7-3.1-3.8
		c0-1.9,0-3.8-0.1-5.7c0-1.5-0.2-3.1-2.3-2.9c-1.6,0.2-1.8,1.5-1.9,2.8c0,2.1-0.1,4.2,0,6.4c0,2-0.8,3.2-2.9,3.3
		c-2.5,0.1-3.4-1.2-3.3-3.5c0.1-1.9-0.1-3.8,0-5.7c0.1-1.6-0.3-3.3-2-3.4c-1.9-0.1-2.3,1.6-2.3,3.2c0,2.1,0,4.2-0.1,6.4
		c0,1.3-0.3,2.8-1.8,2.9c-2.1,0.2-2.3-1.6-2.3-3.1C208.5,222.7,208.6,219.4,208.6,216.1z"/>
	<path class="st2" d="M340.1,201.4c0,1,0,2.1,0,3.1c0,1.3-0.1,2.8-1.7,2.9c-2,0.1-2-1.5-2.3-3c-0.5-2.5,1.7-6.9-1.9-6.9
		c-3.5,0-1.5,4.5-1.8,7c-0.3,2-0.9,3.2-3,3.2c-2.2,0-2.8-1.4-3-3.3c-0.3-2.5,1.6-6.9-1.9-6.8c-3.2,0.1-1.4,4.5-1.7,7.1
		c-0.3,2.1-1.2,3.1-3.2,3c-1.8-0.1-2.7-1-2.7-2.8c0-0.4,0.1-0.9,0-1.3c-0.6-2.2,1.6-6.2-2.1-6.2c-2.8,0-1.4,3.8-1.6,5.9
		c-0.2,2.2,0.1,4.4-3.1,4.3c-3.1-0.1-3-2.4-3-4.6c0-0.8,0.1-1.7,0-2.5c-0.1-1.4,0.2-3.4-2-3.2c-1.8,0.2-1.6,2-1.9,3.5
		c-0.4,2.3,1.4,6.4-1.9,6.4c-3.9-0.1-2.5-4.6-2-6.7c1.5-5.8-0.6-7.3-6-6.5c-1.6,0.2-4.5,0.8-4.5-2c0-2.9,2.8-2,4.5-2
		c15.9-0.1,31.9,0,47.8-0.1c3.2,0,4.7,1,4.6,4.4c-0.2,3,0,5.9-0.1,8.9c0,1.6,0.6,4-1.7,4.2c-2.8,0.2-2.4-2.3-2.6-4.1
		c-0.1-0.6-0.2-1.2-0.4-1.8C340.6,201.4,340.4,201.4,340.1,201.4z M339,194.7c0.5,1.4,1.1,2.8,1.9,4.8
		C341.4,197.1,342,195.5,339,194.7z"/>
	<path class="st2" d="M344.9,216.4c0,3.3,0,6.7,0,10c0,1.4-0.5,2.6-2,2.7c-1.7,0.1-2-1.2-2-2.6c0-1.9,0-3.8,0-5.7
		c0-1.7,0.2-3.8-2.2-3.9c-2.3-0.1-2.4,1.9-2.4,3.6c0,1.7,0,3.4,0,5.1c0,2.1-0.2,3.9-3,3.7c-2.6-0.1-3-1.8-3-3.9c0-1.9,0-3.8,0-5.7
		c0-1.6-0.4-3.1-2.4-2.9c-1.5,0.1-1.9,1.5-1.9,2.8c0,2.1-0.1,4.3,0,6.4c0,2-0.6,3.2-2.9,3.3c-2.5,0.1-3.5-1.1-3.4-3.5
		c0.1-1.9,0-3.8,0-5.7c0-1.6-0.2-3.3-2.1-3.4c-1.9-0.1-2.2,1.6-2.2,3.2c0,2.1,0,4.3,0,6.4c-0.1,2.1-1.2,3.1-3.2,3.1
		c-2.2,0-2.6-1.4-2.9-3.3c-0.6-3.1,2.3-8.8-2.4-8.8c-4.1,0-1.5,5.6-2.1,8.7c-0.3,1.4,0,3.3-2.1,3.2c-1.9-0.1-2-1.8-2-3.4
		c0-2.1,0-4.3,0-6.4c0.1-2,0.3-3.9-2.6-4c-1.5,0-3.3-0.3-2.9-2.4c0.4-1.8,2.2-1.7,3.7-1.7c16,0,31.9,0,47.9,0c2.8,0,4.5,0.8,4.5,3.9
		c0,3.6,0,7.2,0,10.8c0,1.5-0.2,3.3-2.3,3.2c-2.1-0.1-1.8-2-2-3.4C346.4,222.6,347.6,219.4,344.9,216.4z"/>
	<path class="st2" d="M86.7,296c-11.3-1.8-22-3.1-32.7-5.2c-6.9-1.4-13.2-1.2-19.8,1.6c-7.6,3.2-15.6,5.6-23.4,8.4
		c-1.6,0.6-3.5,1.4-4.3-0.9c-0.6-2,1.4-2.4,2.7-2.8c10.8-3.9,21.6-7.7,32.3-11.6c1.9-0.7,3.7-0.2,5.6,0.1c11.3,1.9,22.7,3.7,34,5.5
		c3.7,0.6,7,0.2,10.6-1.2c18.8-7.4,37.6-14.6,56.4-21.7c1.8-0.7,4.4-2.8,5.5,0c1.1,2.9-2.3,3-4,3.7c-19.8,7.7-39.6,15.3-59.4,22.9
		C89,295.4,87.6,295.8,86.7,296z"/>
	<path class="st2" d="M1080,406.2c8.5,0.3,15.1,2.8,19.9,8.9c2,2.6,3.5,3.2,6.8,1.6c12.8-6.1,25.5-5.7,37.7,2
		c2.4,1.5,4.7,1.7,7.3,1.4c10.3-1.1,19.5,1.2,26.5,9.3c1.7,2,3.5,1.8,5.7,1.7c7.6-0.5,14.8,1.1,21.2,5.4c2.2,1.5,4.7,3.4,2.8,6
		c-1.8,2.4-4-0.4-5.2-1.6c-5.7-5.8-12.8-5.8-20-5.4c-2.3,0.1-4.6,0.7-6.3-1.7c-6.5-9.1-15.8-10.8-26.1-9.4c-2.8,0.4-4.8-0.2-7.1-1.7
		c-12-7.9-24.4-8-36.7-1.2c-3.7,2-5.6,1.9-8.1-1.9c-5.2-8-13.1-10.3-22.3-8.7c-1.9,0.3-4.9,2-5.6-0.6c-0.8-3.5,3-2.6,4.9-3.3
		C1076.9,406.4,1078.9,406.4,1080,406.2z"/>
	<path class="st2" d="M495.5,240.5c-33.2-3-66.5-3.8-98.8-12.5c-2.6-0.7-4.5,0.1-6.6,1.1c-6.3,3.1-12.6,6.2-18.9,9.3
		c-1.4,0.7-3.2,1.4-4,0c-1.2-2.1,0.9-2.9,2.4-3.6c7.8-3.9,15.6-7.8,23.4-11.7c0.7-0.4,1-0.7,2-0.4c23.6,8.1,48.3,9.1,72.9,11.4
		c11.2,1,22.5,1.6,33.8,2.4c1.7,0.1,4.6-0.7,4.5,2c-0.1,3.4-3.2,1.7-5,1.9C499.2,240.6,497.3,240.5,495.5,240.5z"/>
	<path class="st2" d="M1265.3,470.2c-4.6-4.9-9.3-9.7-13.9-14.6c-1.1-1.2-2.8-2.4-1.7-4.3c1-1.8,2.7-0.8,4-0.5
		c29.2,5.7,58.7,4.6,88.1,3.9c2,0,4.7-1.4,5.7,1.1c0.9,2.3-1.7,3.6-2.9,5.2c-2.5,3.1-5.2,6.1-7.8,9.2c-1.2,0.4-2.2,1.8-3.7,1.1
		c-0.7-5.8,5.8-7.4,7.1-12.7c-27.5,1.6-54.7,1.1-82.7-2.7c4.1,5.2,8,9.1,13.1,11.3c2.2,0.9,3.1,1.9,2.5,4.2
		C1270.4,472.4,1268,470,1265.3,470.2z"/>
	<path class="st2" d="M1034.3,381.7c-6.2-0.2-11.9,2.4-17.4,5.9c-1.9,1.3-3.7,2.9-6.1,0.6c-7.9-7.4-16.4-5.7-24.6-1
		c-3.4,1.9-6.1,2.5-10,1c-12.1-4.5-23.7-0.7-32.4,9.2c-2,2.3-4.3,8.1-7.8,5.2c-2.9-2.4,2.4-5.6,4.1-7.9
		c7.5-10.4,23.4-14.9,36.2-10.8c3.3,1.1,5.8,0.9,8.9-0.8c8.7-4.7,17.7-6.1,26.4,0.3c2.8,2.1,4.3,0.1,6.2-1
		c12.2-6.9,24.3-6.5,36.2,0.8c1.5,0.9,4.2,1.9,2.7,4.2c-1.5,2.4-3.4,0.2-4.9-0.7C1046.4,383.5,1040.9,381.5,1034.3,381.7z"/>
	<path class="st2" d="M573.9,430.7c9.5,5.9,21.9,2.5,33.9,3.1c8.7,0.5,14.6,6.1,20.4,11.6c2.5,2.4,4.2,3,7.5,1.1
		c9.3-5.3,18.4-3.7,27,2c1.4,1,4.1,1.9,2.4,4.2c-1.3,1.8-3,0.2-4.4-0.7c-8.9-5.8-17.9-6.6-26.6,0.3c-3.5,2.7-4.7-0.2-6.7-2
		c-8.5-7.6-17.2-14.6-29.7-12.6c-1.6,0.3-3.2,0.2-4.7,1.5c-2.7,2.4-4.9,2.1-8.1-0.6c-7-6-19.3-4.4-25.9,2.3
		c-1.2,1.2-2.6,3.8-4.6,1.9c-1.8-1.8-0.2-4,1.2-5.5C560.1,432.8,565.8,431.2,573.9,430.7z"/>
	<path class="st2" d="M788.8,433.7c1.7,0.3,4.6-0.1,6.2,1.1c7,5.5,11.6,1.5,17.2-2.8c9.1-7,19.7-8.7,30.8-5.6c3.2,0.9,5.7,0,8.5-1.1
		c9.7-3.9,19.1-3.9,27.6,3.1c1.5,1.2,4.3,2.7,2.2,5c-2,2.2-3.2-0.7-4.5-1.8c-7.7-6.3-16.1-6.1-24.5-2.2c-3.5,1.6-6.5,1.9-10.2,1
		c-13.3-3.3-24.8-0.4-33.3,10.9c-2.7,3.6-5.1,5-9.2,1.3c-7.8-7-15.9-5.6-23.9,0.3c-1.6,1.2-3.6,3.6-5.4,1.2
		c-1.8-2.4,1.6-3.6,2.8-4.9C777,434.9,782.5,434.1,788.8,433.7z"/>
	<path class="st2" d="M154.3,420.6c-0.3,0.8-0.4,1.5-0.8,1.8c-1,0.7-2,0.6-2.8-0.3c-8.3-9.7-18.3-9.4-29-5c-2.1,0.9-3.7,0.1-5.5-0.6
		c-13.4-5.4-25.5-2.7-36.1,6.7c-3.4,3-5.3,3.3-8.8,0.1c-7.2-6.3-15.5-5.9-23.8-1.9c-1.7,0.8-4,3.3-5.4,0.5c-1.3-2.6,2-3.4,3.7-4.2
		c9-4.5,18.1-4.9,26.5,1.2c2.9,2.1,4.4,1.6,6.9-0.4c11.2-8.8,23.6-11.3,37.1-6.2c2.9,1.1,5.3,0.3,7.9-0.5c9.8-3,18.9-2.3,26.8,5
		C152.3,417.9,153.2,419.3,154.3,420.6z"/>
	<path class="st2" d="M938,283.8c-0.9-10.2,3-19.8,5.2-29.7c0.3-1.6,1.2-2.6,2.5-3.5c12.5-8.8,27.5-8.8,39.8,0
		c1,0.7,1.9,1.8,2.2,2.9c3.7,12.7,6.6,25.5,5.4,38.8c-0.1,1.6,0.3,4-2.2,3.7c-2.3-0.2-1.8-2.6-1.7-4.2c0.5-10-0.6-19.8-3.4-29.5
		c-2.3-8-8.4-13.2-16.7-14.4c-7.8-1.1-14,2.6-20.5,5.8c-1.9,0.9-1.8,2.9-2.2,4.4c-2.6,10-5.5,20.1-4.5,30.7c0.2,1.7,0,3.4-0.1,5.1
		c-0.1,1.1-0.6,2.2-1.8,2.3c-1.7,0.1-2.1-1.2-2.1-2.6C938,290.4,938,287.3,938,283.8z"/>
	<path class="st2" d="M965.4,300c16.6,0,33.2,0.2,49.8-0.1c4.9-0.1,6.4,1.5,6,6.2c-0.4,3.8-0.1,7.7-0.1,11.5c0,1.6-0.2,3.2-2.3,3.1
		c-1.7-0.1-1.6-1.6-1.7-2.9c0-0.4,0-0.9,0-1.3c-0.6-12.5-0.7-12.5-13.2-12.5c-28.1,0-56.2,0.1-84.4-0.1c-4.3,0-6.2,0.9-5.7,5.6
		c0.4,4,0.1,8.1,0.1,12.1c0,1.3-0.2,2.7-1.8,2.8c-1.7,0.1-2.1-1.3-2.1-2.6c-0.1-6.2-0.1-12.3,0-18.5c0-4.1,3.2-3.2,5.5-3.3
		C932.2,300,948.8,300,965.4,300z"/>
	<path class="st2" d="M1752.5,323.2c-2.6,0.2-4.9-0.7-7.2-1.7c-20.6-8.6-40-20-61.6-26.4c-7.1-2.1-13.7-3.5-20.5,1.1
		c-3.2,2.2-7.5,2.8-11.3,4c-1.1,0.3-2.7,0.6-3.1-1.1c-0.4-1.5,0.6-2.3,2-2.7c6.4-1.8,12.3-4.5,18.2-7.5c2.8-1.4,6.2-0.4,9.4,0.4
		c16.6,4.5,32.6,10.8,48.1,18.3c7.1,3.5,14.3,7,21.5,10.3C1750.2,319.1,1752.1,320.4,1752.5,323.2
		C1752.4,323.2,1752.5,323.2,1752.5,323.2z"/>
	<path class="st2" d="M383.4,317.2c1.6-5.2,0.3-7.1-4.8-6.9c-9.5,0.3-19.1,0-28.7,0.1c-2.6,0-5.7,0.4-5.6-3.2c0.1-3.2,3.2-2.1,5-2.1
		c11.3-0.1,22.5,0.1,33.8-0.1c3.9-0.1,5.4,1.3,5.1,5.2c-0.2,2.5-0.6,5.2,0.1,7.6c1.6,5.9-4.6,5.6-6.6,8.6c-0.7,1.1-2-1.1-2.3-2.6
		c-1.7-8.4-3.5-9.2-10.6-5.2c-1.2,0.7-2.4,1.4-3.3,0.1c-0.8-1.2-0.1-2.4,0.9-3.4c3.6-3.6,7.6-4.5,12.1-1.9
		C380.2,314.2,381.5,315.6,383.4,317.2z"/>
	<path class="st2" d="M1747.3,468.8c-2.1-3.4-4.4-6.8-6.3-10.3c-1.7-3-1.3-5.1,2.9-4.2c22.7,4.8,45.6,5.1,68.6,4.1
		c3.7-0.2,4.4,1.3,3.3,4.6c-0.9,2.7-1.4,5.6-2.1,8.4c0,0,0.1-0.1,0.1-0.1c-1.3,0-2.5,0-3.8,0c0-1.1-0.4-2.3,0.1-3.1
		c2.5-5.2,0.2-6-4.5-5.5c-8.2,0.8-16.5,0.3-24.8,0.2c-11.3-0.1-22.3-2.6-33.5-3c-0.2-0.3-0.3-0.5-0.5-0.8c-0.1,0.2-0.2,0.3-0.3,0.5
		c0.3,0.1,0.5,0.1,0.8,0.2c0,3.6,2.3,5.8,4.8,7.6c2.3,1.6,0.8,2.8,0.3,4.2C1750,471.9,1749.1,469.6,1747.3,468.8z"/>
	<path class="st2" d="M277,211.2c0.6,0,1.3,0,1.9,0c12.6,0,14.7,2.7,12.3,15.3c-0.3,1.4-0.6,2.6-2.1,2.7c-1.7,0.1-2-1.3-2-2.7
		c-0.1-2.5,0-5.1,0-7.7c0-1.9-0.5-3.4-2.8-3.4c-2.5,0-2.5,1.6-2.4,3.5c0.1,2.1,0.1,4.3,0,6.4c-0.1,1.6,0.2,3.9-2.2,3.7
		c-2.3-0.2-1.9-2.4-1.9-4.1c0-1.9,0-3.8-0.1-5.7c-0.1-1.4-0.7-2.6-2.2-2.6c-1.5,0.1-2,1.3-2,2.8c0,2.3,0,4.7,0,7
		c0,1.4-0.5,2.6-2.1,2.7c-1.7,0.1-2-1.4-2-2.6c-0.1-2.8,0-5.5,0-8.3c0-1,0.4-2.3-1.2-2.3c-1.3,0-1.6,1.2-1.7,2.3
		c-0.1,2.8,0,5.5-0.1,8.3c0,1.3-0.2,2.7-2,2.7c-1.6-0.1-2.1-1.3-2.1-2.7c0-4,0-8.1,0.1-12.1c0.1-3,2.3-3.1,4.6-3.1
		C270.2,211.2,273.6,211.2,277,211.2z"/>
	<path class="st2" d="M425.6,472.2c-0.1,1.4,0.6,3.4-1.4,3.8c-2.5,0.5-2.3-1.7-2.6-3.3c-4.4-19.5-16.7-27.9-36.1-24.4
		c-3,0.5-4.1-0.2-4.9-3.1c-2.2-7.7-6.2-13.9-14.5-16.2c-1.3-0.4-2.5-1.2-2-2.7c0.6-2,2.4-1.4,3.8-0.9c6.9,2.2,12.5,6.4,14.6,13.2
		c1.6,5.2,4.1,5.1,8.3,4.7C407.8,441.4,425.3,456.3,425.6,472.2z"/>
	<path class="st2" d="M224.1,232.8c9.8,0,19.6,0,29.4,0c1.9,0,4.9-0.8,4.8,2.3c-0.1,2.7-3,1.8-4.7,1.8c-17.4,0.1-34.9,0.3-52.3-0.1
		c-5.6-0.1-8.3,1.2-7.4,7.2c0.3,1.9,1,5.2-1.8,5.3c-3.5,0.1-2.2-3.4-2.2-5.4c-0.1-13.6-0.7-10.8,10.6-11.1c4-0.1,8.1,0,12.1,0
		C216.4,232.8,220.2,232.8,224.1,232.8z"/>
	<path class="st2" d="M329.2,232.8c9.4,0,18.7,0.2,28.1-0.1c4.7-0.2,6.8,1.4,6.2,6.1c0,0.2,0.1,0.4,0,0.6c-0.8,3.3,1.6,9.4-1.7,9.5
		c-4.8,0.1-2.1-5.7-2.4-8.8c-0.4-4.3-3.2-3.2-5.5-3.2c-17-0.1-34,0-51-0.1c-1.5,0-3,0.1-4.5,0c-1.4-0.1-3.4,0.4-3.5-1.8
		c-0.1-2.5,2-2.3,3.7-2.3C308.8,232.8,319,232.8,329.2,232.8z"/>
	<path class="st2" d="M268.3,193.9c0-1.9,0-3.8,0-5.7c0-8.1,0-8.1,8.4-8.1c8.2,0,8.2,0,8.2,8.3c0,4.9,0,9.8,0,14.6
		c0,2.5,0.1,4.7-3.5,4.6c-3.4,0-2.9-2.3-3-4.3c0-1.1,0-2.1,0-3.2c0-1.4-0.6-2.7-2-2.8c-1.8-0.1-1.5,1.5-1.9,2.7
		c-0.8,2.7,2.3,8.2-3.6,7.4c-5-0.6-1.8-5.6-2.5-8.5C268,197.4,268.3,195.6,268.3,193.9z M276,185.4c-2.1,0.7-1.3,2.7-1.4,4.2
		c-0.1,1.5,0.6,2.5,2.2,2.2c2.6-0.4,1.5-2.6,1.6-4.1C278.5,186.3,277.7,185.4,276,185.4z"/>
	<path class="st2" d="M1109.5,469.2c-1.9-0.3-2.9,3.6-4.7,1.6c-2-2.2,1.1-3,2.2-4.3c1.5-1.8,2.7-3.7,3.2-6.6
		c-14.6,1.7-29.1,1.7-43.5,1.1c-1.1,3.6,3.9,8.1-2.1,10.2c-4.6-14.4-4.6-14.4,10.2-13.9c11.7,0.3,23.4-0.1,35-1.5
		c6.3-0.8,6.8,0,4.2,6C1113,464.5,1112.1,467.4,1109.5,469.2z"/>
	<path class="st2" d="M996.6,470.4c-3.2-3.8-5.3-8.1-7.2-12.6c-1.5-3.7-1.3-5.4,3.7-5.8c10.2-0.7,20.3-0.2,30.4,0.1
		c4.6,0.2,5,1.9,3.6,5.5c-1.8,4.5-3.9,8.9-7.1,12.7c-1.8,0.4-3.5,0.8-5.3,1.2c-0.4-1.8-0.1-3.1,1.8-4.1c2.9-1.6,3.9-4.8,5.3-7.7
		c1.2-2.3,0.7-3.3-2.1-3.5c-7.6-0.7-15.1-0.9-22.7,0c-3.4,0.4-3,1.7-2.2,4.1c1.4,4.1,5,6.5,7.2,9.9
		C1000.3,471.2,998.6,472.3,996.6,470.4z"/>
	<path class="st2" d="M395.8,277.8c0,6.2,0.1,12.3,0,18.5c0,1.9,0.8,5-2.3,4.9c-2.4-0.1-1.9-2.9-1.9-4.7
		c-0.1-10.8-0.3-21.7,0.1-32.5c0.2-5.4-1.6-7.4-6.8-6.6c-1.2,0.2-2.6,0-3.8,0c-1.3-0.1-2.7-0.4-2.6-2.1c0.1-1.2,1.1-1.8,2.2-1.8
		c4-0.1,8.1-0.2,12.1,0c2.9,0.1,3,2.5,3,4.7C395.8,264.6,395.8,271.2,395.8,277.8z"/>
	<path class="st2" d="M157.6,277.3c0-6.2,0.1-12.3-0.1-18.5c-0.1-3.9,1-6,5.4-5.6c3.2,0.3,6.4,0.1,9.5,0.2c1.1,0,2.2,0.5,2.3,1.8
		c0.1,1.6-1.1,2-2.5,2.2c-3.3,0.5-7.8-1.6-9.7,1.1c-2.3,3.4-0.7,8.2-0.8,12.4c-0.1,8.7,0,17.4,0,26.1c0,1.9,0.3,4.4-2.4,4.2
		c-2.1-0.2-1.8-2.5-1.8-4.2C157.6,290.4,157.6,283.8,157.6,277.3z"/>
	<path class="st2" d="M965.7,219.1c-1.6,5.8-3.6,11.6-3.8,17.8c0,1.4,0,3.3-2.1,3.2c-2-0.1-2.2-1.9-2-3.3c0.9-10.1,3.5-20,5.9-29.8
		c0.2-0.6,1.1-1.4,1.7-1.5c1.1-0.2,1.9,0.5,2.2,1.7c2.2,9.7,4.9,19.3,5.6,29.3c0.1,1.5,0.4,3.8-2.2,3.7c-1.9-0.1-1.9-2-1.9-3.5
		C969.2,230.7,966.9,225.2,965.7,219.1z"/>
	<path class="st2" d="M277.1,232.8c0.9,0,1.7,0,2.6,0c11.8,0,13.9,2.5,11.6,14c-0.3,1.3-0.5,2.6-2.1,2.7c-1.7,0.1-1.8-1.4-2-2.7
		c-1.7-9.9-1.7-9.9-11.8-9.9c-8.3,0-8.3,0-9.1,8.7c-0.1,1.6,0.4,3.9-2.2,3.8c-2.4-0.1-1.9-2.4-2-4
		C261.3,232.7,261.3,232.7,277.1,232.8z"/>
	<path class="st2" d="M904.9,476.4c-9.5,0-19.1,0-28.6,0c-1.8,0-4.4,0.6-4.3-2.2c0.1-2.3,2.6-1.7,4.1-1.7c19.3,0,38.6-0.1,57.9,0
		c1.7,0,4.4-0.9,4.2,2.1c-0.1,2.3-2.5,1.8-4.1,1.8C924.5,476.4,914.7,476.4,904.9,476.4z"/>
	<path class="st2" d="M402.7,305c0.2,0,0.4,0,0.6,0c10.2,0,13.5,4.6,10.5,14.8c-0.3,1.1-0.7,2-1.9,2.1c-1.8,0.1-1.8-1.3-2-2.6
		c-0.6-2.9,1.8-7-1.7-8.5c-2.7-1.2-6.2-0.3-9.4-0.4c-1.5,0-3,0-4.4-0.1c-2.1,0-2.2-1.9-2.4-3.2c-0.3-1.6,1.1-2.1,2.5-2.1
		C397.2,305.1,400,305.1,402.7,305C402.7,305.1,402.7,305,402.7,305z"/>
	<path class="st2" d="M150.8,305c2.3,0,4.7-0.1,7,0c1.6,0.1,3.8-0.2,3.6,2.3c-0.2,2.1-1.5,3.2-3.9,3c-2.5-0.2-5.1,0.1-7.6-0.1
		c-4.4-0.4-7.4,0.3-6.5,5.9c0.3,1.6,0.8,4.4-2.2,4.2c-2.1-0.2-1.8-2.5-1.8-4.2C139.4,302.3,138,305.4,150.8,305z"/>
	<path class="st2" d="M850,476.4c-3.6,0-7.2,0-10.8,0c-1.4,0-2.6-0.6-2.7-2.1c0-1.1,1-1.8,2.2-1.8c7.6,0,15.3,0,22.9,0
		c1.1,0,2.2,0.3,2.3,1.7c0.1,1.6-1.1,2.2-2.4,2.2C857.7,476.4,853.8,476.4,850,476.4z"/>
	<path class="st2" d="M1675.8,472.3c-7.7,0-15.4,0-23.1,0c0-1.5,0-3,0-4.4c7.7,0.7,15.4,1.5,23,2.2
		C1675.7,470.8,1675.7,471.5,1675.8,472.3z"/>
	<path class="st2" d="M1265.3,470.2c2.7-0.2,5,2.2,7.9,1.1c0.4,0.3,0.8,0.6,1.1,0.9c-3.4,0-6.8,0-10.2,0
		C1264.5,471.6,1264.9,470.9,1265.3,470.2z"/>
	<path class="st2" d="M996.6,470.4c2,1.8,3.7,0.8,5.4-0.4c1,0.4,1.3,1.3,1.4,2.3c-2.6,0-5.2,0-7.7,0
		C996,471.6,996.3,471,996.6,470.4z"/>
	<path class="st2" d="M1747.3,468.8c1.8,0.8,2.8,3.1,5.2,2.7c0,0,0,0.6,0,0.6c-1.7,0.1-3.5,0.1-5.2,0.2
		C1747.3,471.1,1747.3,470,1747.3,468.8z"/>
	<path class="st2" d="M1014.7,471.3c1.8-0.4,3.5-0.8,5.3-1.2c0,0.7,0,1.4,0,2.1c-2.1,0-4.3,0-6.4,0.1
		C1013.9,471.9,1014.3,471.6,1014.7,471.3z"/>
	<path class="st2" d="M991.9,472.3c-1.3,0-2.6,0-3.9,0c0.2-1.3,0.7-2.2,2.3-2.1C991.4,470.3,991.7,471.3,991.9,472.3z"/>
	<path class="st2" d="M1333.1,471.3c1.5,0.7,2.5-0.7,3.7-1.1c0.5,0.7,0.9,1.4,1.4,2.1c-1.7,0-3.5,0-5.2,0
		C1333.1,471.9,1333.1,471.6,1333.1,471.3z"/>
	<path class="st2" d="M1808.7,472.2c0.5-0.3,0.9-0.7,1.4-1c1.3,0,2.5,0,3.8,0C1812.4,473.6,1810.4,472.2,1808.7,472.2z"/>
	<path class="st2" d="M1431.6,469c-0.2,1.1-0.4,2.2-0.6,3.3c-1.3,0.1-2.8,0.1-2.7-1.5C1428.4,468.9,1430.1,468.9,1431.6,469z"/>
	<path class="st2" d="M339,194.7c3,0.8,2.3,2.5,1.9,4.8C340.1,197.4,339.6,196,339,194.7z"/>
	<path class="st2" d="M1747.3,459.8c-0.3-0.1-0.5-0.1-0.8-0.2c0.1-0.2,0.2-0.3,0.3-0.5C1746.9,459.3,1747.1,459.6,1747.3,459.8
		C1747.3,459.8,1747.3,459.8,1747.3,459.8z"/>
</g>
<g>
	<path class="st3" d="M1008.1,925.2c1.8-1.4,1.5-2.8,1.5-4c0.1-3.1,1.5-4.5,4.7-4.7c12.7-0.7,25.4-1.5,38.2-2.2
		c2.6-0.2,5.4-0.6,5.2,3.4c-0.1,2.8,2.1,2,3.5,2c6.7,0.1,13.5,0.1,20.2,0c3.3,0,5.1,0.9,4.8,4.7c-0.3,3.2-0.2,6.5,0,9.8
		c0.1,2-0.6,3.2-2.6,3.3c-2.3,0.2-1.9-1.7-2-3c0-0.2,0-0.4,0-0.5c-0.1-3.4,1.1-8.2-0.7-10c-2.4-2.4-7.2-0.7-11-0.8
		c-3.8-0.1-7.6,0-11.5,0c-2.7,0-5.6,0.5-5.6-3.8c0-2.3-2.1-1.5-3.4-1.5c-10.9,0.6-21.8,1.4-32.7,2c-3.2,0.2-3,2.1-2.8,4
		c0.6,4.6-1.7,5.7-5.7,5.4c-3.8-0.2-7.6-0.1-11.5-0.1c-2.5,0.1-5.7-1.1-5.9,3.3c-0.1,1.6-1.9,1.4-3.1,1.4c-2,0.1-4-0.2-6,0.1
		c-5.2,0.7-8.1-0.7-7-6.6c0.6-3.4-1.4-4-4.2-3.6c-3.4,0.4-4.7-0.8-4.9-4.5c-0.9-17.6-0.3-35.3-0.3-52.9c0-28.3,0.4-56.5,0.4-84.8
		c0-10.1,0-20.3-0.7-30.4c-0.4-6.2,1.8-9.6,7.5-11.3c1.1-0.3,2.1-1.1,3-2.4c-9.5,0-19.1,0-29.2,0c2.3,2.6,5.3,3.3,7.8,4.1
		c4.1,1.3,4.3,3.8,4.3,7.3c-0.1,56-0.1,112,0,168c0,4.2-0.4,7-5.5,6.8c-3.7-0.2-2.3,2.9-2.6,4.8c-0.3,1.7,0.7,3.6-1.4,4.9
		c-2.3,1.5-3.2-0.7-4.6-1.5c-7.1-3.7-14.8-6.6-22.4-7.3c-6.5-0.6-13.6,4.5-19.5-2.4c-5.9,1.9-10.6-1.5-15.8-3.2
		c-4.3-1.4-8.7-0.3-12.7,1.7c-2.2,1.1-3.6,1.1-5.6-0.8c-3.6-3.4-7.5-5.3-13.2-3.6c-4.6,1.3-9.8-1.9-15-0.6c-1.4,0.4-2.1-1.3-0.7-2.6
		c0.6-0.6,1.7-1.2,2.4-1.1c9.4,1.7,20-3.3,28.4,4.5c1.8,1.6,3.2,0.4,4.4,0c6.8-2.3,13.2-1.9,19.4,1.7c1.8,1,3.5,0.6,5.3,0.5
		c3.5-0.2,6.8,0.2,9.7,2.7c3.1,2.7,6.4,1.2,8.1-2.8c3.8-9.2,5.3-19.1,8.1-28.5c3.9-12.7,5.2-25.8,8.3-38.6c4.2-17.2,4.8-34.8,7.7-52
		c2.9-17.5,3.4-35,4.1-52.5c0.1-3.3,0.6-6.6-4.1-7.4c-2-0.3-2.2-2.2-2-4c0.2-1.9,1.6-2.2,3.2-2.2c12.7,0,25.5,0,38.2,0
		c1.6,0,2.9,0.3,3.1,2.2c0.3,2-0.3,3.8-2.4,4.3c-3.8,0.9-3.8,3.5-3.6,6.6c1.6,28.6,3.7,57.3,8.3,85.5c2.1,13,3.5,26.2,7.3,38.8
		c3.1,10.2,4.1,20.9,7.7,30.9C1003.7,909.3,1005.1,917.3,1008.1,925.2z M995.1,925.6c1.5,0,2.9-0.2,4.4,0c5.2,0.8,5.1-2.1,3.4-5.2
		c-5.3-10.2-5.7-21.7-9.7-32.3c-3.8-10.3-4.6-21.4-7.2-32.1c-4.1-16.8-5.3-34.3-7.9-51.4c-2.8-18.5-3.4-37.3-3.9-56
		c0-1.5,0.9-4.3-1.9-4.2c-2.7,0.1-1.8,2.9-1.6,4.4c1.2,9.5,1.4,19.1,2.3,28.6c2.8,27.7,2.7,55.7,6.8,83.4
		c2.7,18.5,3.7,37.2,5.6,55.9C986.4,925.6,986.5,925.6,995.1,925.6z M951.8,756.8c0.1,0,0.2,0,0.3,0c0-3.1,0-6.2,0-9.3
		c0-1.3,0.6-3.3-1.6-3.3c-2.3,0-1.6,2-1.7,3.3c-1.1,28.4-2,56.8-7.9,84.7c-2.7,12.8-4,25.9-7.1,38.8c-3.7,15.6-8,31-11.8,46.6
		c-0.3,1.1-1.5,2.7,0.6,3c3.7,0.5,6.8,2.3,10.2,3.5c3.7,1.3,4.1-1.4,4.5-4c2.1-15,3.3-30.1,5.3-45.2c4.1-29.9,3.7-60.3,7.7-90.4
		C951.5,775.4,951.3,766.1,951.8,756.8z M970.1,801.9c-0.5,0.9-0.7,1.1-0.7,1.3c-0.1,38-0.1,75.9-0.2,113.9c0,2.9,1.4,3.4,3.6,3.1
		c4.5-0.6,5.8,1.5,5.4,5.6c-0.2,2.1-1,5.2,3,4.8c4.3-0.5,2-3.6,1.7-5.4c-1.6-11.4-3-22.9-4.5-34.3c-3.3-25.8-5.1-51.9-7.5-77.8
		C970.6,809.6,970.4,806.2,970.1,801.9z M953.9,795.5c-1.7,18.3-3.1,36.6-5.4,54.9c-1.8,14-2.9,28.2-3.9,42.3
		c-0.7,10.1-2.7,20-4.4,29.9c-0.5,3,0.7,3.8,3,4.5c3.6,1,2.3-1.9,2.4-3.3c0-2.9,1.4-4,4.1-3.7c3.9,0.6,4.3-1.6,4.3-4.8
		c-0.1-26-0.1-52-0.1-77.9C953.9,823.5,953.9,809.5,953.9,795.5z"/>
	<path class="st3" d="M366.8,860c13.7,0,27.3,0.2,41-0.1c5.3-0.1,7,1.9,6.9,7c-0.2,22.9-0.1,45.8-0.1,68.7c0,2.4-0.7,5,3.5,5.1
		c3.8,0.1,4.8-1,4.9-4.8c0.3-19.8,0.8-39.6,1.3-59.5c0.2-7.9,0.2-7.9,8.2-7.9c14.4,0,14.4,0,14.9,14.4c0.5,17.6,1.1,35.3,1.3,52.9
		c0.1,3.7,1,4.9,4.9,4.9c3.8,0,4.4-1.5,4.3-4.8c0-11.2,0.1-11.2,11.2-13c7.7-1.3,15.4-2.7,23.1-4c7.2-1.3,14,1.7,21,2.3
		c3.2,0.3,6.4,1.2,9.6,1.8c1.4,0.3,3.2,0.4,2.9,2.2c-0.4,2-2.3,1.3-3.7,1.1c-6.6-1.1-13.4-1.7-19.9-3.4c-7.7-2-14.7,1.1-22.1,1.6
		c-3.1,0.2-6.1,1.1-9.1,1.7c-8.7,1.6-8.6,1.5-8.7,10.6c-0.1,7.4,1.8,7.3-7.2,7.3c-9.6-0.1-10-0.1-9.9-9.8
		c0.1-19.5-2.5-38.8-2.5-58.2c0-3-0.8-4-4-4c-10.6-0.1-10.6-0.3-11,10.5c-0.5,18.9-1.1,37.8-1.4,56.7c-0.1,3.7-1,5-4.9,5
		c-11.5,0-11.5,0.1-11.5-11.5c0-21.1-0.1-42.2,0.1-63.3c0-4.3-0.8-5.9-5.5-5.9c-25.7,0.2-51.4,0.2-77,0c-4,0-5.2,1-5.2,5.2
		c0.2,23.3,0,46.6,0.2,69.8c0,4.1-0.8,5.7-5.3,5.6c-11.1-0.2-11,0-11.2-10.9c-0.4-18.5-1-37.1-1.1-55.6c0-4.6-1.5-5.9-5.9-5.7
		c-10.7,0.4-9-0.9-9.3,8.9c-0.5,19.3-1,38.5-1.2,57.8c0,4.4-1.5,5.5-5.7,5.4c-22.6-0.2-45.2-0.2-67.7,0c-4.7,0-6.2-1.5-6.3-6.3
		c-1.2-48-2.8-96-4-144c-0.1-4.7-1-6.6-6.2-6.3c-9.4,0.5-18.9,0.3-28.4,0.1c-3-0.1-3.9,0.8-4.1,3.9c-3.2,48.8-3.8,97.7-5.2,146.6
		c-0.1,4.7-1.3,6.8-6.2,6c-0.2,0-0.4,0-0.5,0c-4.5-0.3-10.2,1.8-13.3-0.8c-3-2.5-0.9-8.2-0.9-12.5c0-2.9-1-3.8-3.8-3.7
		c-2.9,0.2-5.8,0.1-8.7,0c-2.1,0-4-0.1-3.8,3c0.1,1.6-0.9,2.1-2.5,1.9c-1.3-0.2-1.9-0.9-1.9-2.2c0-0.4,0-0.7,0-1.1
		c-0.5-3.8,1.9-9.2-1.2-11.2c-2.8-1.8-7.7-0.2-11.7-0.1c-15.7,0.5-31.3,1.1-47,1.5c-3.5,0.1-4.7,1.3-4.5,4.8
		c0.3,5.6,0.1,11.3,0.1,16.9c0,1.4,0.3,3.1-1.9,3.2c-2.2,0.1-2.6-1.3-2.6-3.2c0.1-7.1,0.2-14.2,0-21.3c-0.1-3.7,2.5-3.5,4.7-3.6
		c8.5-0.4,17.1-0.7,25.7-1c12.6-0.5,25.1-0.8,37.7-1.5c4-0.2,6,0.8,5.3,5c-0.7,4.4,1.2,5.9,5.4,5.2c0.4-0.1,0.7,0,1.1,0
		c4.5,0.3,10.1-1.9,13.2,1c3,2.7,0.8,8.3,1,12.6c0.1,2.4,0.5,3.5,3.3,3.6c8.7,0.4,8.3,0.5,8.8-8.1c2.8-48.1,3.7-96.2,5.3-144.4
		c0.1-3.1,1.1-4,4.2-4c12.6,0.1,25.1,0.2,37.7,0c3.7-0.1,4.9,1.3,4.6,4.7c-0.1,1.1,0,2.2,0.1,3.3c2.5,47.4,4.3,94.8,5.1,142.2
		c0.1,4.7,1.2,6.4,6.3,6.4c19.8-0.3,39.7-0.3,59.5-0.1c3.9,0,5-1.2,4.9-4.9c-0.5-20.7,1.7-41.4,2.3-62.1c0.1-4.1,1.5-5.6,5.5-5.2
		c5.4,0.6,11.9-2.2,15.9,1.3c4.1,3.6,1.4,10.2,1.6,15.4c0.7,16.5,0.9,33.1,1.3,49.6c0.1,3.1-0.5,5.9,4.5,5.9c5.5,0,3.9-3.5,3.9-6.2
		c0.1-22.7,0.2-45.5-0.1-68.2c-0.1-4.9,1-6.7,6.3-6.5C339.1,860.2,352.9,860,366.8,860z"/>
	<path class="st3" d="M1403.8,809.8c-4.7-1.9-3.4-5.6-2.6-8.3c2.9-8.9,2.7-18.2,4-27.3c0.2-1.6,0.5-3.2,0.7-4.9
		c0.4-3.5,1.6-6.7,5.8-6.6c4.1,0.1,6,3.6,6.4,6.8c1.7,11.7,2.8,23.4,4.2,35.2c0.2,1.4,0.6,3.3-1.3,3.6c-2.6,0.4-2-2.1-2.3-3.5
		c-2.4-11-3.8-22.1-4.9-33.2c-0.2-1.8-0.1-3.6-2.1-5.2c-5.8,14-4,29.2-7.6,43.4c16.1-1.5,31.5,3.9,47.2,5.6c2.1,0.2,3.8,0.5,5.7-0.7
		c3.9-2.4,8.3-3.5,12.8-4.3c6.9-1.2,13.8-1.9,20.4-5c5.9-2.7,12.6-1.6,18.6,0.9c2.3,1,3.5,1,4.5-1.5c1-2.5,4-4.3,5.9-4.2
		c8.1,0.4,15.8-4.5,23.4-2.8c6.2,1.4,11.2,1.8,17.2-0.8c5.4-2.3,11.6-1,17,1.5c3,1.3,5.2,0.8,7.6-0.6c7.7-4.6,15.6-4.4,23.5-0.8
		c1.9,0.8,3.4,0.8,5.2,0.4c0.5-0.1,1.1-0.2,1.6-0.4c6.2-2,12.2,2.7,17.1,1.8c5.4-0.9,10.4-5.4,16.7-3.1c1.6,0.6,2.8-0.1,4.1-0.7
		c1.6-0.7,3.5-2.1,5-1.8c9.7,1.8,19.5,0.6,29.2,1.5c2.4,0.2,4.1,0.5,6.3-1.3c4.4-3.5,9.9-3.4,15.1-2.1c3,0.7,5.4,0.6,8.3-0.7
		c6.2-2.7,12.5-1.5,18.6,0.6c2.4,0.8,4.4,1,6.8,0.3c6.4-2.1,12.9-2.1,19.3,0c5.6,1.9,11.5,1,17.2,2.5c4.6,1.2,9.2,2.4,12.3,6.3
		c1.6,1.9,3,2.3,5,1c1.4-0.9,3-2,4.4-2c10,0.3,19.9-0.9,29.8-1.2c0.9,0,2.2,0,2.6,0.5c5.1,5.7,10.7,2.6,16.3,1.3
		c4.7-1,9.6-0.7,14,0.9c3,1.1,4.4-0.2,6.6-1.3c9.2-4.3,18.6-8.6,29.2-4.7c1.9,0.7,3.4,0,5.1-0.8c3.5-1.6,7.2-3.5,12.8-0.5
		c-6.1,1.9-11.1,3.1-15.3,6c-0.1,0.1-0.4,0.1-0.5,0c-6.7-5.6-13.5-1-20.3-0.5c-4.1,0.3-7.6,1-9.5,5c-1.3,2.7-3.1,3-5.7,1.6
		c-7.8-4.2-15.7-3.4-23.6-0.1c-2.4,1-4.2,1.6-6.2-0.7c-4.4-4.9-10-4.8-15.5-2.7c-3.4,1.3-6.4,1.6-9.9,0.5
		c-5.3-1.6-10.4-1.1-14.6,3.2c-1.5,1.5-3.6,2.5-4.9,0.1c-4-7.1-10.8-8.8-17.9-9.5c-4.9-0.5-9.7-1.1-14.5-2.3c-4-1-8.5-1.6-12.4-0.1
		c-5.5,2.1-10.3,1.3-15.6-0.7c-4.1-1.5-9-1.7-12.7,0.7c-3.3,2.1-6,1.5-9.2,0.7c-5.7-1.5-11.1-1.9-14.9,3.9c-1.1,1.7-2.4,1-3.8,0.4
		c-5.4-2.3-10.8-3.1-16.2,0c-1.7,1-3.4,0.1-5.1-0.7c-5.1-2.3-10.3-3.8-15.2,0.6c-1.4,1.3-3.1,1.2-4.6,0.4c-5.2-2.8-9.6-0.9-13.3,2.7
		c-2.1,2.1-3.2,2.4-5.8,0.6c-4.7-3.2-9.9-4.5-15.4-1.9c-2.3,1-4.3,0.9-6.7-0.3c-7.7-3.7-15.3-4.1-22.6,1.3c-2.3,1.8-4.5,1.8-7.4,0.5
		c-7.9-3.4-16-5.1-23.4,1.5c-1.9,1.7-3.6,0.5-5.4-0.5c-5.1-2.8-10.2-4.9-15.3,0.2c-1.7,1.7-3.9,0.5-5.7,0c-5.4-1.5-9.2-0.5-11.1,5.4
		c-0.9,2.7-2.5,3.9-5.7,2.1c-8.2-4.4-16.4-5.2-24.7,0.1c-1.9,1.3-4.5,1.3-6.9,1.4c-7.5,0.3-14.8,1.7-21.3,5.7
		c-1.9,1.2-3.8,1-5.8,0.6c-10.2-1.7-20.4-3.3-30.6-5.1c-5.8-1-11.4-1.4-17.3-0.2c-12.3,2.5-24.8,3.9-37.3,4.4
		c-10.3,0.4-18.5,5.8-27.3,9.6c-2,0.9-2.5,2.4-2.4,4.4c0.1,3.3,0,6.5,0,9.8c0,3.2-1.5,5.6-3,8.4c-6.2,11.1-15.9,21-13.1,35.5
		c0.8,4.3-1.4,7.7-3.4,11.5c-4.4,8.5-7.8,17.4-11.7,26.1c-0.4,1-0.9,2-1.2,3c-0.6,1.7-2.1,2.2-3.4,1.9c-2-0.6-1.3-2.4-0.7-3.6
		c3.5-7.1,6.2-14.5,9.8-21.5c3.5-6.7,7.3-13.2,5.9-20.8c-1.9-10.5,4.3-18.1,9.2-25.6c4.8-7.4,7.6-14.6,6.7-23.2
		c-0.4-4.2,1-6.4,4.9-8.9c15.1-9.7,32.2-10.3,49-11.9C1392.1,812.4,1397.8,811.4,1403.8,809.8z"/>
	<path class="st3" d="M642.8,818.7c0-23.4,0.1-46.9-0.1-70.3c0-4.4,1.1-6,5.8-5.9c21.7,0.2,43.3,0.1,65,0.1c1.3,0,2.6-0.1,3.8,0.2
		c0.6,0.1,1.3,0.8,1.5,1.3c0.3,1.1-0.7,1.7-1.5,1.8c-1.6,0.2-3.3,0.2-4.9,0.2c-20,0-40,0.2-60.1-0.1c-4.8-0.1-6,1.1-6,5.9
		c0.2,46.4,0,92.7,0.2,139.1c0,5.3-1,7.7-6.8,7c-4.7-0.5-9.5,0.1-14.2-0.2c-3.7-0.2-4.7,1.1-4.5,4.6c0.1,1.7,1.4,5.1-2.1,5
		c-2.9-0.1-2.4-3-2.4-5.1c0-10.7-0.2-21.5,0.1-32.2c0.1-3.8-1.2-4.8-4.8-5.2c-23.6-2.5-47.2-2.3-70.8,0.1c-3.8,0.4-4.3,1.8-4.3,5.1
		c0.1,20,0.1,40,0,60c0,1.4,0,2.9-0.2,4.3c-0.1,1-1,1.5-2,1.5c-1,0-1.8-0.5-2.1-1.4c-0.2-0.9-0.2-1.8-0.2-2.7c0-21.8,0-43.6,0-65.4
		c0-2.7,0.8-3.9,3.6-4.2c27.2-3.3,54.4-3.3,81.7-0.1c3.2,0.4,3.8,2,3.7,4.8c-0.1,7.5,0.2,14.9-0.1,22.4c-0.2,4.4,1.4,5.7,5.6,5.4
		c3.8-0.3,7.7-0.3,11.5,0c3.9,0.3,4.9-1.1,4.8-4.9C642.7,866,642.8,842.3,642.8,818.7z"/>
	<path class="st3" d="M1512.5,887.7c0-13.5-0.1-26.9,0.1-40.4c0.1-3.6-1-4.6-4.6-4.4c-16.2,0.7-32.4,1.2-48.6,1.5
		c-3.7,0.1-4.9,1-4.9,4.9c0.2,15.8,0.1,31.6,0.1,47.5c0,8,0,8.1-7.7,8.1c-3.5,0-5.7,0.6-5.2,4.7c0.2,1.6-0.4,2.8-2.4,2.7
		c-2.1-0.1-2.1-1.7-2.1-3.1c0-5.6-0.1-11.3,0-16.9c0.1-2.9-0.6-4.1-3.8-4.1c-15.7,0.2-31.3,0.2-47,0c-3.2,0-3.9,1-3.9,4
		c0.2,10.7,0.1,21.5,0,32.2c0,1.5,1,4.2-1.9,4.2c-2.8,0-2.6-2.3-2.6-4.3c0-11.6,0.1-23.3-0.1-34.9c-0.1-3.5,1.4-4.5,4.5-4.5
		c18.6,0,37.1,0,55.7,0c2.9,0,3.8,1.3,3.7,4c-0.2,2.7,0.2,5.5-0.1,8.2c-0.4,3.6,1,4.6,4.6,4.6c3.8,0.1,3.9-1.7,3.9-4.6
		c-0.1-16.7,0.1-33.5-0.1-50.2c-0.1-4.2,1.1-5.6,5.5-5.7c18.4-0.3,36.8-1,55.1-1.8c4.9-0.2,6.6,0.8,6.6,6.2
		c-0.3,26.4-0.1,52.7-0.1,79.1c0,5.1,3.3,7.2,8,5.4c2.3-0.9,1.4-2.7,1.4-4.1c0.1-9.3,0-18.5,0.1-27.8c0-1.8-1.1-4.6,2-4.7
		c3.6-0.2,2.4,2.9,2.4,4.9c0.1,10.4-0.1,20.7,0.2,31.1c0.1,3.5-1.4,4.3-4.4,4.5c-14.3,1-14.3,1-14.3-13.1
		C1512.5,909.5,1512.5,898.6,1512.5,887.7z"/>
	<path class="st3" d="M1617.8,786.4c4.4,3,9.2,3.6,14.1,4c1.6,0.1,3.3,0.8,3.2,2.2c-0.1,1-1.9,1.6-3.5,1.4
		c-6.9-0.6-13.5-2.3-19.7-5.7c-0.9-0.5-2-1.3-1.9-2.4c0.1-1.5,1.5-1.9,2.8-2.2c1.4-0.4,2.8-1,4.2-1.2c4.8-0.5,7.7-2.5,6.5-7.9
		c-0.4-2,1.4-3.2,2.3-5.2c-4.8-0.7-9-2.2-12.8-5.3c-1.7-1.4-2.9-2.9-3-4.8c-0.1-2.5,2.4-2.2,4-2.8c10.5-4,20.7-8.5,30.3-14.3
		c2.8-1.7,5.5-3.7,5.1-7.7c-0.1-1.2,0-2.8,0.6-3.7c1.9-2.6,2.9-6.4,7.1-6.4c3.3,0,5.6,2.1,5.7,4.9c0.1,12,9.9,14.6,17.9,18.8
		c6.7,3.5,13.9,6,20.9,9c2.4,1,3.8,1.3,1.4,4.7c-3.6,5.1-8.6,6.3-14,7.8c0.5,1,1.5,1.9,1.4,2.8c-1,8.8,5.2,10.4,11.6,11.8
		c0.8,0.2,1.6,0.7,2.4,1.1c0.1,0.1,0.1,0.3,0.3,1.2C1675.6,786,1646.8,788.4,1617.8,786.4z M1698.9,761.2c0.2-2-1.3-1.9-2.1-2.2
		c-5.7-2.4-11.8-4-17-7.2c-8.3-5-20.4-6.7-20-20.4c0.1-2-1.9-2.9-3.3-2.8c-1.6,0.1-2.1,2-2,3.4c0.8,8.9-5.9,11.7-11.9,15.3
		c-7.8,4.7-16,8.5-24.6,11.4c-3.4,1.1-3,2.6-0.6,4.3c2.9,2.1,6.3,2.6,9.7,3c1.4,0.1,3.3-0.1,3.2,2c-0.2,4.1,1.8,3.6,4.6,2.8
		c3.7-1,7.5-1.4,11.1,0.5c0.8,0.4,1.4,0.9,2.4,0.4c8.8-4.5,18.2,1.8,27.1-1.6c0.6-0.2,1.4,0.1,2.1,0.3c3.1,0.8,6.7,3.3,6.6-3.1
		c0-1.3,2-1.4,3.2-1.4c3.3,0.2,6-1.5,8.8-2.5C1697.4,763,1698.2,761.8,1698.9,761.2z M1656.3,783.3c4,0.1,7.4,1.2,7.1-4.7
		c-0.2-4.8-2.5-5.4-6.1-5.2c-3.7,0.2-7.4-0.3-7.4,5.7C1649.9,785.6,1654.2,782.7,1656.3,783.3z M1644.5,778.9
		c0.8-3.7-0.5-5.6-4.3-5.5c-3.6,0.1-5.3,1.4-5.4,5.4c-0.1,4.2,1.8,4.6,5.1,4.7C1643.4,783.6,1645.7,783.1,1644.5,778.9z
		 M1669.8,779.2c-1.1,3.4,0.5,4.3,4.1,4.3c3.6,0,4.7-1,4.5-4.5c-0.2-3.1,0.1-5.7-4.3-5.6C1669.9,773.4,1669.3,775.5,1669.8,779.2z
		 M1626.8,778.5c0.6,1.5-1.1,4.3,1.2,4.6c2.9,0.4,1.8-2.6,1.7-4c-0.1-1.8,1.3-5.1-1.7-5.1C1625.9,773.9,1627.4,776.9,1626.8,778.5z"
		/>
	<path class="st3" d="M1669.9,880c0-15.3-0.2-30.5,0.1-45.8c0.1-5-0.8-7.3-6.4-7.8c-14.1-1.3-28.2-3.6-42.4-1.7
		c-2.4,0.3-4.6,1-6.9,1.5c-4.4,1.1-5.9,3.8-5.9,8.4c0.1,30.7,0.1,61.4,0.1,92.2c0,1.3,0,2.5,0,3.8c0,1.4-0.2,2.6-2,2.7
		c-1.7,0-2.7-0.8-2.6-2.7c0.1-0.9,0-1.8,0-2.7c0-31.1,0-62.2,0-93.3c0-5.7,3.4-10.2,9-11.7c14-3.9,28.2-2.2,42.3-0.9
		c4.7,0.4,9.4,1.3,14.1,1.8c3.9,0.4,5.4,2,5.3,6.2c-0.2,31.6-0.1,63.3-0.1,94.9c0,2.9-0.3,5.2,4,5.2c4.2,0,5.5-1,5.4-5.4
		c-0.3-12.7-0.1-25.4-0.1-38.2c0-1.7-0.7-4.5,1.7-4.5c2.4,0,1.7,2.8,1.7,4.5c0.1,14.2,0,28.4,0.1,42.5c0,3.2-0.8,4.4-4.2,4.6
		c-13.2,0.5-13.2,0.6-13.2-12.6C1669.9,907.3,1669.9,893.7,1669.9,880z"/>
	<path class="st3" d="M954.9,654.6c0-11.6,0.1-23.3,0-34.9c0-2.1,0.7-4.3-1.8-6.2c-2.2-1.7,0.1-2.9,1.9-2.6c4.6,0.7,4.8-1.8,4.8-5.4
		c-0.1-19.4-0.1-38.9,0-58.3c0-1.5,0-2.9,0.2-4.3c0.1-0.9,0.6-1.7,1.7-1.7c1.2,0,1.5,0.9,1.5,1.9c0.1,1.4,0.1,2.9,0.1,4.4
		c0,19.3,0.1,38.5,0,57.8c0,3.7,0,6.5,5,5.8c2.5-0.3,3.7,1.3,1.3,3.1c-1.9,1.3-1.2,2.8-1.2,4.3c-0.1,24.2-0.1,48.3,0,72.5
		c0,1.4-0.5,3.1,0.8,4.1c5.3,4.6,4.4,10.8,4,16.6c-0.4,5.5,1.2,8.6,6.9,9.2c4,0.4,4.3,3.2,3.8,6.4c-0.1,0.8-0.4,1.4-1.2,1.6
		c-0.8,0.2-1.6-0.2-1.7-0.9c-1.2-6.1-6.9-5.4-10.7-6c-6.5-1-13.4-1.4-20,0.6c-2.8,0.9-6.1,0.9-6.7,5.1c-0.3,1.9-2.6,1.9-3.4,0.8
		c-1.3-1.8-1.4-4.1,0-6c0.4-0.5,1.2-0.7,1.9-1c9.1-3.5,9-3.5,9.1-12.7c0-5-0.9-10.2,3.4-14.3c0.9-0.9,0.6-3.1,0.6-4.7
		C954.9,677.8,954.9,666.2,954.9,654.6z M963.7,655.3c0-12.5,0-25.1,0-37.6c0-1.5,0.6-3.4-2.1-3.5c-2.7-0.1-2.2,1.8-2.2,3.3
		c0,1.3,0,2.5,0,3.8c0,23.1,0,46.1,0,69.2c0,1.8,0.8,4.3-0.7,5.2c-6.1,3.7-4,9.5-4.2,14.6c-0.2,7.5,0,7.1,7.4,7.7
		c5.8,0.5,7.4-1.6,6.6-6.9c-0.3-2.5-0.2-5.1,0-7.6c0.1-2.5-0.1-5.1-2.3-6.3c-2.9-1.7-2.5-4.1-2.5-6.5
		C963.7,678.9,963.7,667.1,963.7,655.3z"/>
	<path class="st3" d="M1292.6,896.8c0-10.7-0.2-21.5,0.1-32.2c0.1-3.9-1.2-4.8-4.9-4.9c-19.3-0.7-38.6,0.7-57.8,1
		c-3.6,0.1-3.5,1.9-3.5,4.5c0.1,17.3,0,34.5,0,51.8c0,1.1,0.1,2.2,0,3.3c-0.1,1.2,0.2,2.9-1.5,3.1c-2.1,0.2-2-1.7-2-3.1
		c0-8.5,0-17.1,0-25.6c0-10.9,0.1-21.8-0.1-32.7c0-3.2,1-4.5,4.4-4.5c21.1-0.5,42.2-2,63.3-1c4.9,0.2,6.8,1.5,6.7,6.9
		c-0.3,20.9,0,41.8-0.2,62.7c0,3.9,1.1,5,4.9,4.8c4.9-0.3,9.8-0.2,14.7,0c2.7,0.1,3.4-0.9,3.4-3.5c-0.2-6.7,0.1-13.5-0.1-20.2
		c-0.1-3.2,0.9-4.6,4.3-4.5c15.6,0.2,31.3,0.3,47,0.4c1.5,0,3.9-0.6,3.8,1.8c-0.1,2.3-2.4,1.7-3.9,1.7c-14.4,0-28.8-0.1-43.1-0.3
		c-3.5-0.1-4.8,0.7-4.6,4.5c0.3,6.5,0,13.1,0.1,19.6c0.1,2.8-0.8,3.9-3.7,3.9c-7.5-0.1-14.9-0.2-22.4,0c-3.6,0.1-4.7-1-4.7-4.6
		C1292.8,918.6,1292.6,907.7,1292.6,896.8z"/>
	<path class="st3" d="M714.5,834.6c0-25.8,0-51.6,0.1-77.4c0-1.9-1.7-5.5,2.4-5.3c3.3,0.2,2,3.4,2,5.3c0.1,50.9,0.1,101.8,0.1,152.7
		c0,1.8-1.3,4.7,1.3,5.2c3.9,0.6,8,1,11.8-0.4c1.2-0.5,0.6-2.7,0.6-4.1c0-14.4,0.1-28.7-0.1-43.1c0-3.6,0.7-5.3,4.7-5.2
		c10.2,0.2,20.4,0,30.6,0.1c1.6,0,4.4-0.8,4.2,1.9c-0.1,2.4-2.8,1.6-4.5,1.7c-9.1,0.1-18.2,0.2-27.3,0c-3.5-0.1-4.3,1.1-4.2,4.4
		c0.2,14.2-0.2,28.4,0.2,42.5c0.1,5-1.6,6.4-6.2,6c-3.6-0.3-7.3-0.3-10.9,0c-3.9,0.3-4.9-1.3-4.9-5
		C714.6,887.3,714.5,861,714.5,834.6z"/>
	<path class="st3" d="M367,897.3c6.7,0,13.5,0.1,20.2,0c3.7-0.1,5.5,0.8,5.4,5.1c-0.3,12.4-0.1,24.7-0.1,37.1c0,1.8,1,4.4-2.4,4.3
		c-2.9-0.1-2-2.5-2-4.2c-0.1-11.3-0.2-22.6,0.1-33.8c0.1-3.6-0.6-5.1-4.7-5c-11.3,0.3-22.6,0.3-33.9,0c-4.2-0.1-5.3,1.2-5.1,5.3
		c0.3,5.4,0,10.9,0.1,16.4c0,1.5-0.9,3.8,1.2,4.2c2.5,0.5,1.8-2.3,2.1-3.5c1.3-6.2,5.1-10.6,9.8-14.5c6.9-5.6,14.8-4.2,21.5,2.9
		c8.2,8.7,8.1,19.3,7.7,30c0,1.4-0.5,2.4-2.3,2.3c-1.6-0.1-2.2-1-2.2-2.5c0-3.5,0.2-6.9-0.1-10.4c-0.6-7.1-2.1-13.6-8.2-18.7
		c-6.3-5.3-10.6-4.7-16.7,1.8c-4.6,4.9-7.5,11-7,18.1c0.1,1.6,0,3.3,0,4.9c0,6.2-2.2,8.1-7.7,6.6c-1.7-0.4-1.6-1.8-1.6-3
		c0-13.3,0-26.6,0-39.8c0-3.1,1.7-3.5,4.2-3.5C352.5,897.4,359.7,897.3,367,897.3C367,897.3,367,897.3,367,897.3z"/>
	<path class="st3" d="M778,860.6c0-12.5,0-25.1,0-37.6c0-2.6,0.2-4.5,3.5-4.8c20.7-1.8,41.3-3.6,62.1-1.1c2.7,0.3,5.4,0.7,8,1.4
		c8.9,2.2,10.9,4.7,10.9,14c0,23.4,0,46.9-0.1,70.3c0,1.7,1.2,4.7-1.9,4.7c-3,0-2.6-2.8-2.6-4.9c0-23.8-0.1-47.6,0.1-71.4
		c0-5.4-2.1-7.8-7.2-9.1c-12-3.1-24.2-2.9-36.3-2.6c-9.6,0.3-19.2,1.5-28.8,1.8c-3.7,0.1-4.4,1.5-4.4,4.8c0.1,23.6,0.1,47.2,0,70.9
		c0,1.9,1.3,5.4-1.6,5.4c-3,0-1.7-3.5-1.7-5.4C777.9,885,778,872.8,778,860.6z"/>
	<path class="st3" d="M1135.4,845.7c0-22.2,0.2-44.4-0.1-66.6c-0.1-5.3,1.7-6.4,6.5-6.3c19.3,0.2,38.6,0.1,57.9,0.1
		c0.9,0,1.8-0.1,2.7,0c1.2,0.1,2.9,0,2.7,1.8c-0.1,1.6-1.7,1.7-2.9,1.7c-1.5,0-2.9,0-4.4,0c-17.5,0-35,0.2-52.4-0.1
		c-4.7-0.1-5.6,1.5-5.6,5.8c0.2,42.9,0.1,85.8,0.1,128.7c0,1.6,0,3.3,0,4.9c0,1.4-0.4,2.6-2.1,2.6c-1.6,0-2.3-0.9-2.4-2.4
		c-0.1-1.3,0-2.5,0-3.8C1135.4,890.1,1135.4,867.9,1135.4,845.7z"/>
	<path class="st3" d="M1210.9,856.4c0-23.3,0-46.5,0-69.8c0-1.5,0-2.9,0-4.4c0.1-1.5,0.2-3,2.2-3.1c2-0.1,2.3,1.3,2.3,2.9
		c0,1.1,0,2.2,0,3.3c0,47.6,0,95.3,0,142.9c0,1.3,0,2.5-0.1,3.8c-0.1,1.3-0.7,2-2.1,2c-1.3,0-2.1-0.6-2.3-1.8
		c-0.2-1.4-0.2-2.9-0.2-4.3C1210.9,904,1210.9,880.2,1210.9,856.4z"/>
	<path class="st3" d="M366.7,889.8c9.8,0,19.7,0.2,29.5-0.1c4.1-0.1,5.2,1.3,5.1,5.3c-0.2,14.5,0,29.1-0.2,43.6c0,1.8,1.5,5-2.1,5.1
		c-3.6,0.1-2.3-3.1-2.3-4.9c-0.1-13.5-0.2-26.9,0-40.4c0.1-3.8-0.6-5.3-5-5.3c-16.9,0.3-33.9,0.3-50.8,0c-4.4-0.1-5.4,1.4-5.4,5.5
		c0.2,13.4,0.1,26.9,0,40.4c0,1.6,1.1,4.4-1.5,4.5c-3,0.1-1.9-3-1.9-4.7c-0.1-14.7,0.1-29.5-0.1-44.2c0-3.8,1.1-5.1,5-5
		C347,889.9,356.8,889.8,366.7,889.8z"/>
	<path class="st3" d="M1769,887.6c0,10.7,0,21.5,0,32.2c0,1.6,0.9,4.2-1.9,4.3c-2.4,0-1.6-2.5-1.5-3.9c0-2.6-0.8-3.8-3.5-3.5
		c-0.4,0-0.7,0-1.1,0c-12.7-0.3-12.7-0.3-12.7-12.9c0-6.7-0.2-13.5,0.1-20.2c0.2-4-0.8-5.3-5.1-5.2c-16,0.3-32,0.1-48.1,0.1
		c-1.3,0-2.5,0-3.8-0.1c-1-0.1-1.9-0.5-1.8-1.6c0.1-1,0.8-1.6,1.8-1.7c1.1-0.1,2.2-0.1,3.3-0.1c17.5,0,35,0.2,52.4-0.1
		c4.7-0.1,5.8,1.6,5.7,6c-0.3,9.3,0,18.5-0.2,27.8c-0.1,3.4,0.7,5.2,4.4,4.5c1.1-0.2,2.2-0.1,3.3,0c3.9,0.6,5.3-0.7,5.2-5
		c-0.3-16.9-0.1-33.8-0.1-50.7c0-0.5-0.1-1.1,0-1.6c0.4-1.7-1.1-4.8,1.7-4.8c2.9,0,1.7,3.1,1.7,4.8C1769,866.5,1769,877,1769,887.6z
		"/>
	<path class="st3" d="M209.4,743c4.5-7.3,8.9-14,12.9-21c5-8.7,4.9-8.8-5.6-8.8c-22.6,0-45.2,0-67.7,0c-5.3,0-6.1,1-3.4,5.5
		c3.9,6.6,7.7,13.3,12.6,19.3c0.5,0.6,0.8,1.2,1.1,1.9c0.5,1.3,2.6,2.9,0.1,4c-1.7,0.8-3-0.3-4-1.9c-3.8-6.3-7.4-12.7-11.5-18.9
		c-2-3-4.5-5.3-4.2-9.5c0.2-3,1-4.2,4.1-4.2c27.3,0.1,54.6,0.1,81.9,0c3,0,4.5,0.8,4.1,4c-0.2,2,0.2,4-1,5.8
		c-5,7.8-10,15.6-15.1,23.5C212.3,745.3,210.8,744,209.4,743z"/>
	<path class="st3" d="M43.8,889.7c9.8,0,19.6,0.1,29.4,0c3.2,0,4.6,0.8,4.5,4.3c-0.3,4.7,0,9.4-0.1,14.2c0,1.4,0.1,3-2.1,2.9
		c-1.9-0.1-2.4-1.2-2.3-2.9c0-0.7,0-1.5,0-2.2c-0.3-4.1,1.9-9.7-1-11.9c-2.6-2.1-8-0.7-12.1-0.8c-13.8,0-27.6,0.1-41.4-0.1
		c-4.2-0.1-5.6,1.1-5.5,5.5c0.4,13.8,0.3,27.5,0.2,41.3c0,1.4,0.6,3.7-2,3.6c-2.1-0.1-1.6-2.1-1.6-3.4c0-15.4,0.1-30.9-0.1-46.3
		c0-3.5,1.5-4.3,4.6-4.2C24.2,889.8,34,889.8,43.8,889.7C43.8,889.7,43.8,889.7,43.8,889.7z"/>
	<path class="st3" d="M1808.6,845.7c9.8,0,19.6,0.2,29.5-0.1c3.9-0.1,5.4,0.9,5.4,5.1c-0.2,18.2-0.1,36.3-0.1,54.5
		c0,1.7,1.2,4.8-1.9,4.7c-2.5-0.1-1.4-2.9-1.4-4.5c-0.1-16.7-0.3-33.4,0.1-50.1c0.1-5.2-1.7-6.3-6.4-6.2
		c-17.8,0.2-35.6,0.1-53.4,0.1c-1.3,0-2.5,0-3.8-0.1c-1.1-0.1-2.4-0.2-2.3-1.7c0.1-1.3,1.2-1.7,2.3-1.7c4.5,0,9.1,0,13.6,0
		C1796.3,845.7,1802.4,845.7,1808.6,845.7z"/>
	<path class="st3" d="M185.3,754.6c7.8,0,15.6,0.2,23.4-0.1c3.9-0.1,4.7,1.4,4.9,5c0.4,7-1.9,13-5.8,18.6c-0.6,0.9-1,2.1-2.4,1.5
		c-1.3-0.5-1.3-1.7-0.8-2.8c0.8-2,1.6-4,2.4-6.1c0.6-1.5,1.3-3,1.7-4.6c1.4-7.1,0.6-8.1-6.5-8.1c-12.5,0-25.1,0.1-37.6,0
		c-3,0-4.1,0.6-4.1,3.8c0.1,5.3,1.7,9.8,4.7,14c1,1.4,1.6,2.7,0,3.6c-1.4,0.8-3,0.4-3.5-1.4c-1.7-6.1-6.4-10.9-5.9-18
		c0.3-4.8,2-5.6,6.1-5.5C169.7,754.8,177.5,754.6,185.3,754.6z"/>
	<path class="st3" d="M1915.5,932.3c0,2.9-0.1,5.8,0,8.7c0.1,2-1.1,2.6-2.6,2.7c-1.8,0.1-1.9-1.4-1.9-2.7c0-4.7-0.2-9.4,0-14.1
		c0.1-2.8-0.8-3.7-3.6-4.1c-14.4-1.9-28.7-4.7-43.1-5.7c-7.6-0.5-15.4,1.8-23.1,2.9c-1.8,0.2-3.6,0.6-5.4,0.8
		c-1.2,0.1-2.8,0.5-3.1-1.3c-0.2-1.7,1.3-1.9,2.6-2.1c6.4-1,13-1.7,19.3-3.1c11.6-2.5,22.6,1.6,33.9,2.4c6.5,0.5,12.9,1.9,19.4,2.7
		c7.5,1,7.5,1,7.5,8.5C1915.5,929.4,1915.5,930.9,1915.5,932.3z"/>
	<path class="st3" d="M333.1,852.7c2.5-10.2,9.2-16.8,18.8-19.1c13.4-3.2,26.9-4,39,5c4.9,3.6,6.5,9.2,9.6,13.9
		c0.7,1.1,0.6,2.6-1,3.1c-1.7,0.5-2.8-0.1-3.3-1.9c-2.5-9.8-9.4-15.9-18.6-17.5c-10.8-1.9-22.3-2.7-32,4.3
		c-4.2,3.1-7.7,7.5-9.1,12.9c-0.3,1.3-0.9,2.6-2.6,1.9C332.4,854.9,333.2,853.6,333.1,852.7z"/>
	<path class="st3" d="M309.8,757.9c0.1,3.4-0.3,5.9-2.4,8c-0.9,0.9-1,3.3-2.8,2.5c-2.1-0.8-0.8-2.8-0.5-4.3c0.3-1.2,0.9-2.4,0.9-3.7
		c0.1-2,0.8-4.3-2.6-4.8c-1.9-0.2-2.2-1.7-1-3.5c0.8-1.2,2-3.2,0-4.3c-2-1.1-4.3-2-6.7-0.6c-2.1,1.2-1.7,2.8-0.9,4.6
		c0.6,1.3,1.1,3.5-0.6,3.7c-6.8,0.9-3.5,5.1-3,8.4c0.2,1.5,1.7,3.6-0.3,4.3c-2.6,0.9-2.5-1.9-3.1-3.4c-1.6-4.4-5.7-9.2,1.4-12.8
		c-1.8-7.1,9.3-8.5,7.1-15.9c-0.3-0.9,0.4-2.2,1.8-2.2c1.4,0,1.9,1.2,1.9,2.2c-0.2,4.2,1.7,7.2,5.2,9.3c0.7,0.4,1.3,1.5,1.3,2.3
		c0.2,2.4,0,4.7,3.5,5.5C310.5,753.8,309.6,756.8,309.8,757.9z"/>
	<path class="st3" d="M447.9,758.3c0.3,3.1-0.9,5.8-1.9,8.5c-0.6,1.6-1.7,2.4-3.4,1.7c-1.6-0.7-1.2-2-0.9-3.3
		c0.4-1.4,0.8-2.8,1.5-4.1c2.1-4.1-1.2-4.4-3.5-6.1c-2.4-1.8,2.9-5.4-0.7-7.7c-2-1.3-4.1-1.3-6.2-0.1c-2.2,1.2-1.5,3.1-0.8,4.7
		c0.6,1.5,1.1,3.3-0.7,3.6c-8.2,1.6-3,6.2-2.1,9.6c0.3,1,1.9,1.6,0.1,2.7c-1.6,1-2.5,0.7-3.5-0.9c-2.6-4.2-0.3-10.3,0-14.7
		c0.5-6.9,9.6-8.9,7.8-16.3c-0.3-1.4,0.9-2.3,2.4-2.2c1.6,0.1,2.2,1,2.2,2.5c0.1,4.3,2,7.2,5.2,10.4
		C445.8,749.3,448.9,753.7,447.9,758.3z"/>
	<path class="st3" d="M426,832.3c0.3-12,0.3-12,12.5-12.1c7,0,7,0,7.2,7.1c0.1,4.5,0.1,9.1,0.2,13.6c0,1.5,0,3.1-1.9,3.3
		c-2.2,0.2-2.5-1.4-2.6-3.2c-0.1-4.7-0.3-9.4-0.3-14.1c0-4.9-3.6-2.8-5.9-3.1c-2.3-0.3-4.8-0.5-4.6,3.3c0.2,3.4,0.1,6.9-0.1,10.3
		c-0.1,2.5,1.1,6.6-2.6,6.5c-4.1-0.2-1.3-4.3-1.9-6.6C425.7,835.6,426,833.9,426,832.3z"/>
	<path class="st3" d="M197,697.5c-1.4,2.3,2.4,7.6-2.6,7.5c-3.9,0-1.8-5-1.9-7.7c-0.3-4.6,0.1-9.2-4.1-12.3
		c-3.7-2.7-8.2-0.7-10.4,4.5c-1.7,4-0.5,8.2-0.9,12.4c-0.1,1.4,0.3,3.4-1.6,3.5c-2,0.1-1.8-1.9-1.7-3.3c0.2-6.1-1.5-12.7,3.2-17.7
		c3.1-3.2,6.7-5.8,6.1-10.9c-0.1-1,0.8-1.7,1.8-1.5c0.6,0.1,1.5,0.9,1.4,1.3c-1,6.8,5.5,9.3,8.3,13.8
		C196.9,690.5,196.6,693.7,197,697.5z"/>
	<path class="st3" d="M297.7,848.4c4,0,8,0,12,0c2.3,0,3.4,1,2.7,3.4c-1,3.3-2.1,6.5-3.1,9.8c-0.6,1.9-2.1,2.8-3.6,2.4
		c-2.1-0.5-1.1-2.3-0.8-3.6c1.9-8.5,1.9-8.5-7-8.5c-0.2,0-0.4,0-0.5,0c-3.1,0.1-7.1-1-9,0.5c-2.5,2.1,1,5.4,1.3,8.3
		c0.1,1.2,1.1,2.6-0.6,3.3c-1.6,0.7-2.2-0.6-2.7-1.9c-0.3-0.6-0.5-1.3-0.9-1.9c-2.2-3.3-4.5-7.5-2.9-10.8c1.3-2.7,6-0.8,9.2-1.1
		C293.7,848.2,295.7,848.4,297.7,848.4C297.7,848.4,297.7,848.4,297.7,848.4z"/>
	<path class="st3" d="M287.6,832.1c0.7-11.9,0.7-11.7,13-12c4.7-0.1,6,1.4,5.8,5.8c-0.2,5.1,0.2,10.1,0.4,15.2
		c0,1.3-0.2,2.8-1.7,2.9c-1.7,0.1-1.8-1.5-1.8-2.7c-0.2-3.8-0.4-7.6-0.4-11.4c0.1-4,0-6.6-5.6-6.4c-5,0.2-6.2,1.6-5.9,6.2
		c0.3,4-0.2,8-0.4,11.9c0,1.1-0.3,2.4-1.6,2.5c-1.7,0.1-1.9-1.3-1.9-2.6C287.6,838.2,287.6,835.2,287.6,832.1z"/>
	<path class="st3" d="M435.6,848.4c4,0,8-0.1,12,0c3,0.1,4.5,0.9,2.7,4.4c-1.5,2.9-2.2,6.1-3.1,9.3c-0.6,2.2-2.1,2.6-3.7,1.8
		c-1.8-0.8-1-2.4-0.2-3.7c0.4-0.6,1-1,1.3-1.6c2.8-5.7,2.2-6.6-4.2-6.6c-1.6,0-3.3,0-4.9,0c-3.3,0.1-7.6-1-9.5,0.6
		c-1.8,1.6,1.1,5.5,1.8,8.4c0.3,1.4,0.7,2.6-0.9,3.1c-1.7,0.5-2.2-1.1-2.5-2.2c-0.7-3-2.2-5.6-3.6-8.3c-1.8-3.3-1.3-5.6,3.3-5.2
		c2,0.2,4,0,6,0C431.9,848.3,433.7,848.3,435.6,848.4C435.6,848.3,435.6,848.4,435.6,848.4z"/>
	<path class="st3" d="M427.1,786.1c0.2-12.8,0.3-12.9,13.2-11.6c2.4,0.3,4.2,1,4.2,3.8c0.1,5.3,0.1,10.5,0.3,15.8
		c0.1,1.9-0.9,2.7-2.5,2.9c-2.1,0.2-2-1.6-2.1-3c-0.1-4-0.4-8-0.2-12c0.2-3.5-1.4-4.1-4.5-4.2c-3.5-0.1-3.8,1.5-3.8,4.2
		c0.1,3.8,0,7.6-0.1,11.4c0,1.7,0,3.6-2.2,3.7c-2.4,0.1-2.3-1.8-2.3-3.5C427.2,791.2,427.1,788.7,427.1,786.1z"/>
	<path class="st3" d="M373.7,815.6c-1.3,3-1.3,6.1-1.3,9.1c0,1.3-0.2,2.8-1.9,2.7c-1.3-0.1-2.4-1.2-2.5-2.5
		c-0.2-2.1-0.8-4.3,0.7-6.3c1.2-1.7,2.2-3.6,0.1-5.2c-1-0.8-2.4-1.1-3.6-0.3c-2,1.3-1.3,3.1-0.6,4.9c0.9,2.5,0.3,5,0.4,7.5
		c0,1-0.6,1.8-1.6,1.9c-1,0.1-1.9-0.7-1.8-1.6c0.4-5.3-6.2-11.1,1.5-15.9c1.8-1.1,0.6-4.1,1.2-6.2c0.4-1.3,0.1-3.3,2.2-3.2
		c1.7,0.1,3.3,1,2.9,3.1C368.4,808.5,373.1,811.3,373.7,815.6z"/>
	<path class="st3" d="M305.5,786c0,2.7,0,5.5,0,8.2c0,1.3,0,2.8-1.8,2.8c-1.6,0-1.8-1.5-1.8-2.9c-0.1-4.4-0.3-8.7-0.2-13.1
		c0.1-2.9-1.3-3.3-3.7-3.1c-2.1,0.1-4.5-0.6-4.3,3c0.2,4.2-0.2,8.4-0.1,12.5c0.1,2.1-1.2,3.3-2.7,3.4c-2.5,0.3-2-2-2-3.5
		c0-5.1,0.3-10.2,0.3-15.3c0-2.4,0.8-3.5,3.4-3.7C305.1,773.5,305.1,773.5,305.5,786z"/>
	<path class="st3" d="M436.2,799.8c0.5,0,1.1,0,1.6,0c12.1,0,13.9,3.3,7.7,14.3c-0.7,1.2-1.6,2.1-3,1.8c-2-0.5-1.7-2-1.2-3.5
		c0.4-1.4,0.5-3,1.3-4.1c4.5-6.2-0.6-4.9-3.8-5c-2-0.1-4-0.1-6,0c-1.7,0.1-4.2-0.9-5.1,0.8c-1.1,2,0.5,4.1,1.4,6.1
		c0.3,0.8,1.2,1.3,1.4,2.1c0.4,1.2,0.8,2.8-0.6,3.4c-1.5,0.7-3,0.1-3.5-1.6c-1.2-3.8-2.3-7.6-3.5-11.4c-0.7-2.4,0.8-2.8,2.5-2.8
		C428.9,799.7,432.5,799.8,436.2,799.8C436.2,799.8,436.2,799.8,436.2,799.8z"/>
	<path class="st3" d="M297.4,799.8c2.5,0,5.1,0,7.6,0c6.8,0,6.9,0.1,4.6,6.7c-0.9,2.6-2.3,5.1-3.5,7.7c-0.4,0.9-1,1.7-2,1.5
		c-1.2-0.3-1.6-1.4-1.3-2.6c0.2-0.7,0.5-1.4,0.7-2.1c2.2-7.8,2.2-7.8-5.6-7.8c-0.4,0-0.7,0-1.1,0c-9.4,0-8.3-0.5-6,7.6
		c0.4,1.6,2.3,3.8-0.3,4.6c-2.5,0.8-2.4-2.1-3-3.6c-0.9-2.4-1.8-4.6-3.1-6.8c-1.6-2.7-1.9-5.7,3.1-5.4
		C290.8,800,294.1,799.8,297.4,799.8C297.4,799.8,297.4,799.8,297.4,799.8z"/>
	<path class="st3" d="M1092,877.7c-7.1,0-14.2,0-21.2,0c-1.5,0-3.9,0.5-3.8-1.8c0.1-2.1,2.4-1.7,3.9-1.7c14.2,0,28.3,0,42.5,0.1
		c1.5,0,3.8-0.5,3.8,1.8c-0.1,2.4-2.4,1.6-3.9,1.7C1106.1,877.8,1099.1,877.7,1092,877.7C1092,877.7,1092,877.7,1092,877.7z"/>
	<path class="st3" d="M1595.8,913.2c0,5.5,0,10.9,0,16.4c0,1.3,0.5,3.3-1.6,3.5c-2.1,0.1-1.9-1.7-1.9-3.2c0-11.1,0-22.2,0-33.3
		c0-1.4-0.2-3.4,1.6-3.5c2.4-0.1,1.8,2.3,1.9,3.7C1595.9,902.3,1595.8,907.8,1595.8,913.2C1595.8,913.2,1595.8,913.2,1595.8,913.2z"
		/>
	<path class="st3" d="M1561.1,888c7.4,0,14.9,0,22.3,0c1.3,0,3.4-0.5,3.5,1.5c0.1,2.5-2.2,1.8-3.7,1.8c-14.7,0-29.4,0-44.1,0
		c-1.4,0-3.5,0.4-3.5-1.5c-0.1-2.4,2.2-1.8,3.7-1.8C1546.6,888,1553.9,888,1561.1,888z"/>
	<path class="st3" d="M1125.6,906.1c0-6.4,0-12.7,0-19.1c0-1.4-0.3-3.4,1.7-3.4c2.2-0.1,1.7,2,1.7,3.3c0,12.7,0,25.3,0,38
		c0,1.3,0.6,3.4-1.5,3.5c-2.4,0.1-1.9-2.2-1.9-3.7C1125.5,918.5,1125.6,912.3,1125.6,906.1z"/>
	<path class="st3" d="M1058.6,896.3c0,3.3,0,6.5,0,9.8c0,1.2,0,2.9-1.7,2.9c-1.5,0-2.8-1.2-2.9-2.7c-0.1-6.7-0.1-13.4,0-20.1
		c0-1.5,1.3-2.7,2.9-2.6c1.7,0.1,1.6,1.7,1.6,3C1058.6,889.8,1058.6,893.1,1058.6,896.3C1058.6,896.3,1058.6,896.3,1058.6,896.3z"/>
	<path class="st4" d="M995.1,925.6c-8.7,0-8.7,0-9.6-9c-1.9-18.6-2.9-37.4-5.6-55.9c-4.1-27.7-4-55.7-6.8-83.4
		c-1-9.5-1.1-19.1-2.3-28.6c-0.2-1.5-1-4.3,1.6-4.4c2.8-0.1,1.9,2.7,1.9,4.2c0.4,18.7,1,37.5,3.9,56c2.6,17.1,3.8,34.6,7.9,51.4
		c2.6,10.7,3.4,21.9,7.2,32.1c3.9,10.6,4.3,22.2,9.7,32.3c1.6,3.1,1.8,6.1-3.4,5.2C998.1,925.4,996.6,925.6,995.1,925.6z"/>
	<path class="st4" d="M951.8,756.8c-0.4,9.2-0.3,18.6-1.5,27.7c-4,30-3.6,60.4-7.7,90.4c-2.1,15-3.3,30.1-5.3,45.2
		c-0.4,2.7-0.8,5.4-4.5,4c-3.4-1.2-6.5-3-10.2-3.5c-2.1-0.3-0.9-1.9-0.6-3c3.8-15.6,8.1-31,11.8-46.6c3.1-12.9,4.4-25.9,7.1-38.8
		c5.9-28,6.7-56.4,7.9-84.7c0.1-1.3-0.6-3.3,1.7-3.3c2.3,0,1.6,2,1.6,3.3c0.1,3.1,0,6.2,0,9.3C952,756.8,951.9,756.8,951.8,756.8z"
		/>
	<path class="st4" d="M970.1,801.9c0.3,4.3,0.5,7.7,0.8,11.1c2.4,25.9,4.2,52,7.5,77.8c1.5,11.4,2.9,22.9,4.5,34.3
		c0.3,1.8,2.5,4.9-1.7,5.4c-4,0.5-3.2-2.6-3-4.8c0.4-4.2-0.9-6.2-5.4-5.6c-2.3,0.3-3.7-0.2-3.6-3.1c0.1-38,0.2-75.9,0.2-113.9
		C969.4,802.9,969.5,802.8,970.1,801.9z"/>
	<path class="st4" d="M953.9,795.5c0,14,0,28,0,41.9c0,26,0,52,0.1,77.9c0,3.2-0.3,5.3-4.3,4.8c-2.7-0.4-4,0.8-4.1,3.7
		c0,1.3,1.3,4.2-2.4,3.3c-2.3-0.6-3.6-1.4-3-4.5c1.7-9.9,3.7-19.8,4.4-29.9c1-14.1,2.1-28.3,3.9-42.3
		C950.8,832.1,952.2,813.8,953.9,795.5z"/>
	<path class="st5" d="M1698.9,761.2c-0.7,0.6-1.5,1.8-2.6,2.2c-2.8,1.1-5.5,2.7-8.8,2.5c-1.3-0.1-3.2,0.1-3.2,1.4
		c0.1,6.3-3.5,3.9-6.6,3.1c-0.7-0.2-1.5-0.5-2.1-0.3c-8.9,3.5-18.3-2.8-27.1,1.6c-1,0.5-1.7,0-2.4-0.4c-3.6-1.9-7.4-1.6-11.1-0.5
		c-2.8,0.8-4.8,1.3-4.6-2.8c0.1-2.1-1.8-1.8-3.2-2c-3.4-0.3-6.9-0.8-9.7-3c-2.3-1.7-2.7-3.2,0.6-4.3c8.6-2.9,16.8-6.7,24.6-11.4
		c6-3.6,12.7-6.4,11.9-15.3c-0.1-1.4,0.5-3.3,2-3.4c1.4-0.1,3.4,0.8,3.3,2.8c-0.4,13.7,11.7,15.4,20,20.4c5.2,3.2,11.3,4.8,17,7.2
		C1697.6,759.3,1699.1,759.2,1698.9,761.2z"/>
	<path class="st5" d="M1656.3,783.3c-2.1-0.7-6.4,2.3-6.4-4.2c0-6,3.6-5.5,7.4-5.7c3.6-0.2,5.9,0.4,6.1,5.2
		C1663.6,784.5,1660.2,783.5,1656.3,783.3z"/>
	<path class="st4" d="M1644.5,778.9c1.1,4.2-1.1,4.7-4.6,4.6c-3.4-0.1-5.2-0.5-5.1-4.7c0.1-4.1,1.9-5.4,5.4-5.4
		C1644,773.3,1645.4,775.2,1644.5,778.9z"/>
	<path class="st5" d="M1669.8,779.2c-0.6-3.7,0.1-5.8,4.2-5.9c4.4,0,4.1,2.6,4.3,5.6c0.2,3.5-0.9,4.6-4.5,4.5
		C1670.4,783.5,1668.7,782.6,1669.8,779.2z"/>
	<path class="st4" d="M1626.8,778.5c0.5-1.6-0.9-4.6,1.2-4.6c3,0.1,1.6,3.3,1.7,5.1c0.1,1.4,1.2,4.4-1.7,4
		C1625.8,782.7,1627.4,780,1626.8,778.5z"/>
	<path class="st4" d="M963.7,655.3c0,11.8,0,23.6,0,35.4c0,2.5-0.4,4.9,2.5,6.5c2.1,1.2,2.4,3.9,2.3,6.3c-0.1,2.5-0.3,5.1,0,7.6
		c0.7,5.3-0.9,7.3-6.6,6.9c-7.4-0.6-7.6-0.1-7.4-7.7c0.2-5.1-1.9-10.9,4.2-14.6c1.5-0.9,0.7-3.4,0.7-5.2c0-23.1,0-46.1,0-69.2
		c0-1.3,0-2.5,0-3.8c0.1-1.5-0.5-3.4,2.2-3.3c2.7,0.1,2.1,2,2.1,3.5C963.7,630.2,963.7,642.7,963.7,655.3z"/>
</g>
</svg>
